<svg xmlns="http://www.w3.org/2000/svg" xmlns:xlink="http://www.w3.org/1999/xlink" viewBox="0 0 368.84 403.18"><defs><style>.cls-1{isolation:isolate;}.cls-2{fill:#f7d2ba;}.cls-3,.cls-65,.cls-66{fill:#cfd1d2;}.cls-3{opacity:0.5;}.cls-12,.cls-14,.cls-16,.cls-18,.cls-28,.cls-3,.cls-30,.cls-32,.cls-34,.cls-38,.cls-39,.cls-41,.cls-44,.cls-46,.cls-5,.cls-50,.cls-52,.cls-54,.cls-55,.cls-57,.cls-59,.cls-6,.cls-66,.cls-69,.cls-71,.cls-9{mix-blend-mode:multiply;}.cls-4,.cls-6{fill:#694410;}.cls-14,.cls-18,.cls-28,.cls-30,.cls-32,.cls-34,.cls-5,.cls-54,.cls-57,.cls-59,.cls-6,.cls-66,.cls-71{opacity:0.4;}.cls-7{fill:#e8b88f;}.cls-8{fill:#4e2b07;}.cls-10,.cls-52,.cls-9{opacity:0.3;}.cls-9{fill:url(#linear-gradient);}.cls-10,.cls-26{fill:#fff;}.cls-11,.cls-12{fill:#9dc52e;}.cls-12,.cls-16{opacity:0.65;}.cls-13,.cls-14{fill:#c6d644;}.cls-15,.cls-16{fill:#67b660;}.cls-17,.cls-18{fill:#7dd563;}.cls-19{fill:#d1b22c;}.cls-20{fill:#a68623;}.cls-21,.cls-54,.cls-55{fill:#f6df5c;}.cls-22{fill:#b89e27;}.cls-23{fill:#fcf69a;}.cls-24{fill:#d4d4d5;}.cls-25{mix-blend-mode:soft-light;}.cls-27{fill:#ca1e49;}.cls-28{fill:#910e36;}.cls-29,.cls-30{fill:#5494d2;}.cls-31,.cls-32{fill:#ebb92b;}.cls-33,.cls-34{fill:#7fc55c;}.cls-35{fill:#5c3a0d;}.cls-36{fill:#b21943;}.cls-37{fill:#f9ecbb;}.cls-38,.cls-50{fill:#babcbe;}.cls-40{fill:#81aadb;}.cls-41,.cls-42{fill:#d36476;}.cls-43,.cls-44{fill:#7bb752;}.cls-45{fill:#754618;}.cls-46{fill:#885218;}.cls-46,.cls-50{opacity:0.6;}.cls-47{fill:#7f511b;}.cls-48{fill:#59595b;}.cls-49{fill:#f9f9f9;}.cls-51,.cls-52{fill:#434244;}.cls-53{fill:#272425;}.cls-56{fill:url(#radial-gradient);}.cls-57{fill:url(#radial-gradient-2);}.cls-58,.cls-59{fill:#ce7c2c;}.cls-60{fill:#6dbab7;}.cls-61{fill:#afd6d3;}.cls-62{opacity:0.8;}.cls-63,.cls-71{fill:#e5e5e6;}.cls-64{fill:#53938d;}.cls-67,.cls-69{fill:#d46537;}.cls-68{fill:url(#linear-gradient-2);}.cls-70{fill:#6d6e70;}.cls-72{fill:url(#linear-gradient-3);}.cls-73{fill:#6b4fb1;}.cls-74{fill:#7568bb;}.cls-75{fill:#aca0ca;}</style><linearGradient id="linear-gradient" x1="198.6" y1="363.28" x2="173.1" y2="398.12" gradientUnits="userSpaceOnUse"><stop offset="0" stop-color="#8b5f1e"/><stop offset="1" stop-color="#fff"/></linearGradient><radialGradient id="radial-gradient" cx="-602.85" cy="510.27" r="19.19" gradientTransform="matrix(0.72, 0.29, -0.29, 0.72, 879.7, -81.83)" gradientUnits="userSpaceOnUse"><stop offset="0" stop-color="#59595b"/><stop offset="0.26" stop-color="#545456"/><stop offset="0.55" stop-color="#474648"/><stop offset="0.87" stop-color="#322f31"/><stop offset="1" stop-color="#272425"/></radialGradient><radialGradient id="radial-gradient-2" cx="-602.78" cy="510.27" r="19.12" xlink:href="#radial-gradient"/><linearGradient id="linear-gradient-2" x1="622.14" y1="-887.52" x2="635.27" y2="-887.52" gradientTransform="matrix(1, -0.05, -0.05, -1, -293.21, -664.19)" gradientUnits="userSpaceOnUse"><stop offset="0" stop-color="#db846d"/><stop offset="1" stop-color="#991920"/></linearGradient><linearGradient id="linear-gradient-3" x1="1477.73" y1="703.1" x2="1490.86" y2="703.1" gradientTransform="translate(71.61 -1440.28) rotate(53.45)" xlink:href="#linear-gradient-2"/></defs><title>about_image</title><g class="cls-1"><g id="OBJECTS"><circle class="cls-2" cx="250" cy="230.94" r="184.42" transform="translate(-155.66 197.9) rotate(-45)"/><path class="cls-3" d="M308.27,445.31c0,2.42-27.9,4.39-62.3,4.39s-62.3-2-62.3-4.39,27.89-4.38,62.3-4.38S308.27,442.89,308.27,445.31Z" transform="translate(-65.58 -46.52)"/><path class="cls-4" d="M224.19,348.66l-1.29,63.89,12.2-6,11.59,4.16,11.59-4.16,12.19,6V348.66s-.31-48.81,9.53-66.23,22.73-6.06,34.85,10.6c0,0,.75-12.11-4.55-17.41,0,0,24.24,12.87,41.66,4.54,0,0-35.6-2.27-49.23-17.42S263.34,265,263.34,265s9.85-26.5,33.33-34.08,28-33.32,28-33.32-9.09,16.66-27.26,19.69S261.07,237.75,258,240.78c0,0,.76-20.45,10.61-32.57s-2.28-33.32-2.28-33.32-.75,18.93-10.6,28.78S227,216.54,226.23,230.93c0,0-3-15.15-31.81-13.63,0,0,30.3,15.15,32.57,49.23,0,0-16.3-11.23-31.81-6.06C172.46,268,149,252.9,149,252.9A27,27,0,0,0,172.46,268s-7.57,5.3-6.82,11.36c0,0,22.72-23.47,57.36,0C228.36,283,224.19,348.66,224.19,348.66Z" transform="translate(-65.58 -46.52)"/><g class="cls-5"><path class="cls-4" d="M287.33,271.33s-19.19,3-21.71,27.26-4.55,98-4.55,98-6.59-21.19-6.59-26.73c-.16,3.47-1.16,23.23-3,28.75-2,6.06-14.14,4-15.65,0s-1.52-15.65-1.52-15.65l-5.55,19.19s.5-70.69,2.52-93.41-1.51-30.8-4-31.31-35.16-23.22-60.79,1.27c4.28-3.8,25.67-20.18,56.55.75,5.36,3.64,1.19,69.26,1.19,69.26l-1.29,63.89,12.2-6,11.59,4.16,11.59-4.16,12.19,6V348.66s-.31-48.81,9.53-66.23,22.73-6.06,34.85,10.6C314.85,293,308,269.81,287.33,271.33Z" transform="translate(-65.58 -46.52)"/><path class="cls-4" d="M254.48,369.81l0-.53A4.11,4.11,0,0,0,254.48,369.81Z" transform="translate(-65.58 -46.52)"/></g><path class="cls-6" d="M240.35,315.1s-2.51,55.41,2.13,74.81C242.48,389.91,244.2,343.31,240.35,315.1Z" transform="translate(-65.58 -46.52)"/><path class="cls-6" d="M241.11,246.28s-1.8,36.76,1.24,49.64C242.35,295.92,243.6,265,241.11,246.28Z" transform="translate(-65.58 -46.52)"/><path class="cls-6" d="M252.68,284.78s-7.71,61.38-.67,82.6C252,367.38,257.8,315.78,252.68,284.78Z" transform="translate(-65.58 -46.52)"/><path class="cls-6" d="M302.73,262.74c-13.64-15.15-39.39,2.27-39.39,2.27s9.85-26.5,33.33-34.08,28-33.32,28-33.32C313,230.31,297,225.85,280.36,237.12s-20.74,33.54-20.74,33.54c17.16-12.55,31.24-15.88,46.86-2.56S352,280.16,352,280.16,316.36,277.89,302.73,262.74Z" transform="translate(-65.58 -46.52)"/><path class="cls-6" d="M227.36,239.16s-1.54-11.52,11.52-19.46,29.25-17.44,27.43-43.8c-.32,4-2.05,19.28-10.54,27.77-9.85,9.84-28.78,12.87-29.54,27.26,0,0-3-15.15-31.81-13.63C194.42,217.3,222.24,218.68,227.36,239.16Z" transform="translate(-65.58 -46.52)"/><path class="cls-6" d="M254.91,247.48c5.11-7.31,21-21,21-21h0A115.14,115.14,0,0,0,258,240.78s.51-13.63,6-25.23C256.33,229.5,254.91,247.48,254.91,247.48Z" transform="translate(-65.58 -46.52)"/><polygon class="cls-7" points="192.7 360 181.11 364.16 169.52 360 157.32 366.03 180.78 398.61 204.89 365.93 192.7 360"/><path class="cls-8" d="M246.36,431.38a27.54,27.54,0,0,0-8.63,1.91l8.63,11.84L255,433.29A27.54,27.54,0,0,0,246.36,431.38Z" transform="translate(-65.58 -46.52)"/><polygon class="cls-9" points="192.7 360 204.89 366.03 180.78 398.61 192.7 360"/><polygon class="cls-10" points="157.32 366.03 169.52 360 180.78 398.61 157.32 366.03"/><path class="cls-11" d="M358.1,289.76a31,31,0,0,0,11.17-1.35l-1.71-.23s6.6-1.89,10.34-4.51l-1.56.05s5.52-2.58,7.38-5.48c-2.05-2.76-7.72-5-7.72-5l1.55-.06c-3.9-2.36-10.62-3.8-10.62-3.8l1.69-.34a31.07,31.07,0,0,0-11.23-.59l1.1-1.15c-13,2-13.93,12.23-13.93,12.23s1.62,10.18,14.72,11.26Z" transform="translate(-65.58 -46.52)"/><path class="cls-12" d="M344.56,279.57s1.62,10.18,14.72,11.26l-1.18-1.07a31,31,0,0,0,11.17-1.35l-1.71-.23s6.6-1.89,10.34-4.51l-1.56.05s5.52-2.58,7.38-5.48C383.72,278.24,370.1,279.63,344.56,279.57Z" transform="translate(-65.58 -46.52)"/><path class="cls-13" d="M383.79,278.23s-31.88,3-39.43,1.92a1.16,1.16,0,0,1,.51-1.7S362.6,279.29,383.79,278.23Z" transform="translate(-65.58 -46.52)"/><path class="cls-14" d="M349.8,279.55c-5.59-.33-3.56-1-3.56-1l-1.37-.07a1.16,1.16,0,0,0-.51,1.7c7.55,1,39.43-1.92,39.43-1.92S355.39,279.88,349.8,279.55Z" transform="translate(-65.58 -46.52)"/><path class="cls-10" d="M373.78,272.65s-17.5-4.78-27.33,2.7C346.45,275.35,353.75,264,373.78,272.65Z" transform="translate(-65.58 -46.52)"/><path class="cls-11" d="M321.66,234.56a14.8,14.8,0,0,0,6.95.91l-1-.47a23.39,23.39,0,0,0,7.15-1.71l-.94-.24s3.84-1.05,5.58-3c-.63-2.52-3.53-5.25-3.53-5.25l.94.23a23.24,23.24,0,0,0-5.51-4.87l1.08,0a14.93,14.93,0,0,0-6.57-2.45l.91-.7c-8.17-.76-11,7.12-11,7.12s-1.23,8.26,6.34,11.43Z" transform="translate(-65.58 -46.52)"/><path class="cls-12" d="M315.79,224.18s-1.23,8.26,6.34,11.43l-.47-1.05a14.8,14.8,0,0,0,6.95.91l-1-.47a23.39,23.39,0,0,0,7.15-1.71l-.94-.24s3.84-1.05,5.58-3C339.43,230.06,331,228.74,315.79,224.18Z" transform="translate(-65.58 -46.52)"/><path class="cls-13" d="M339.47,230.07s-19.64-3.32-23.92-5.47a1.1,1.1,0,0,1,.66-1.24A214.79,214.79,0,0,0,339.47,230.07Z" transform="translate(-65.58 -46.52)"/><path class="cls-14" d="M318.92,225.09c-3.26-1.25-1.9-1.43-1.9-1.43l-.81-.3a1.1,1.1,0,0,0-.66,1.24c4.28,2.15,23.92,5.47,23.92,5.47S322.18,226.33,318.92,225.09Z" transform="translate(-65.58 -46.52)"/><path class="cls-10" d="M334.71,223.92s-9.4-6.84-16.88-2.71C317.83,221.21,324.64,213.6,334.71,223.92Z" transform="translate(-65.58 -46.52)"/><path class="cls-11" d="M287.88,195.12a27.18,27.18,0,0,0,8-4l-1.33.33a36.27,36.27,0,0,0,6.62-5.93L300,186s3.48-3.28,4.17-5.76c-2.21-1.3-7-1.22-7-1.22l1.16-.47a36.49,36.49,0,0,0-8.88.36l1.18-.69a27,27,0,0,0-8.54,2.71l.54-1.09c-9.23,4.94-7.41,12.15-7.41,12.15s3.71,6.45,13.76,3.56Z" transform="translate(-65.58 -46.52)"/><path class="cls-12" d="M275.26,192s3.71,6.45,13.76,3.56l-1.14-.4a27.18,27.18,0,0,0,8-4l-1.33.33a36.27,36.27,0,0,0,6.62-5.93L300,186s3.48-3.28,4.17-5.76C304.21,180.21,294.36,184.92,275.26,192Z" transform="translate(-65.58 -46.52)"/><path class="cls-13" d="M304.26,180.18s-23.11,10.84-29,12.23c0,0-.73-.46,0-1.29C275.21,191.12,288.68,186.78,304.26,180.18Z" transform="translate(-65.58 -46.52)"/><path class="cls-14" d="M279.17,190.5c-4.25,1.32-2.91.29-2.91.29l-1.05.33c-.69.83,0,1.29,0,1.29,5.9-1.39,29-12.23,29-12.23S283.43,189.17,279.17,190.5Z" transform="translate(-65.58 -46.52)"/><path class="cls-10" d="M295.4,179.17s-14.26,1.61-19.76,9.41C275.64,188.58,278.31,178.87,295.4,179.17Z" transform="translate(-65.58 -46.52)"/><path class="cls-11" d="M151,281.84a30.83,30.83,0,0,0-5.14,10L147,290.5s-2.15,6.5-2.1,11l.83-1.31s-1,6,.36,9.11c3.4-.15,8.37-3.6,8.37-3.6l-.83,1.31c4.13-1.91,9.06-6.64,9.06-6.64l-.67,1.58a31.08,31.08,0,0,0,6.76-8.93l.33,1.54c5.65-11.79-2.21-18.27-2.21-18.27s-9.23-4.31-17.43,5.88Z" transform="translate(-65.58 -46.52)"/><path class="cls-12" d="M166.93,276.33s-9.23-4.31-17.43,5.88l1.53-.37a30.83,30.83,0,0,0-5.14,10L147,290.5s-2.15,6.5-2.1,11l.83-1.31s-1,6,.36,9.11C146.12,309.34,152.6,297.35,166.93,276.33Z" transform="translate(-65.58 -46.52)"/><path class="cls-13" d="M146.08,309.41s15.41-27.92,20.49-33.57a1.15,1.15,0,0,1,1.11,1.36S157.07,291.36,146.08,309.41Z" transform="translate(-65.58 -46.52)"/><path class="cls-14" d="M164,280.67c3.39-4.43,2.83-2.37,2.83-2.37.53-.72.83-1.1.83-1.1a1.15,1.15,0,0,0-1.11-1.36c-5.08,5.65-20.49,33.57-20.49,33.57S160.62,285.09,164,280.67Z" transform="translate(-65.58 -46.52)"/><path class="cls-10" d="M156.25,304.25s13.69-11.76,13.07-24C169.32,280.23,174.51,292.54,156.25,304.25Z" transform="translate(-65.58 -46.52)"/><path class="cls-15" d="M276.56,165.79a26.08,26.08,0,0,0-3.05-10.19l0,1.63s-2.95-5.84-6.24-8.88l.29,1.45s-3.51-4.71-6.81-5.94c-2.58,2.39-4,8.06-4,8.06l-.29-1.44c-1.9,4.06-2.42,10.58-2.42,10.58l-.59-1.52a26.11,26.11,0,0,0,1,10.58l-1.36-.82c4,11.79,14.82,10.89,14.82,10.89s10.39-3.27,9.6-15.69Z" transform="translate(-65.58 -46.52)"/><path class="cls-16" d="M267.9,180.19s10.39-3.27,9.6-15.69l-.94,1.29a26.08,26.08,0,0,0-3.05-10.19l0,1.63s-2.95-5.84-6.24-8.88l.29,1.45s-3.51-4.71-6.81-5.94C260.77,143.86,264.22,156.33,267.9,180.19Z" transform="translate(-65.58 -46.52)"/><path class="cls-17" d="M260.75,143.79s7.76,29.26,7.79,36.49a1.31,1.31,0,0,1-1.85-.18S265,163.39,260.75,143.79Z" transform="translate(-65.58 -46.52)"/><path class="cls-18" d="M267.11,175.3c.48,5.28-.55,3.51-.55,3.51.08.83.13,1.29.13,1.29a1.31,1.31,0,0,0,1.85.18c0-7.23-7.79-36.49-7.79-36.49S266.63,170,267.11,175.3Z" transform="translate(-65.58 -46.52)"/><path class="cls-10" d="M256.38,154.11s-2.42,17.16,6.83,25C263.21,179.16,250.29,174.3,256.38,154.11Z" transform="translate(-65.58 -46.52)"/><path class="cls-15" d="M221.57,207.09a18.48,18.48,0,0,0,.07-7.35l-.31,1.08a26.77,26.77,0,0,0-2.25-7.13l-.11,1s-1.31-3.82-3.19-5.3c-2.14,1.05-4.23,4.51-4.23,4.51l.11-1a26.28,26.28,0,0,0-3.67,6.51l-.09-1.13a18.55,18.55,0,0,0-1.45,7.22l-.71-.82c.2,8.59,7.37,10.19,7.37,10.19s7.35-.07,9.32-8.44Z" transform="translate(-65.58 -46.52)"/><path class="cls-16" d="M213.11,214.88s7.35-.07,9.32-8.44l-.86.65a18.48,18.48,0,0,0,.07-7.35l-.31,1.08a26.77,26.77,0,0,0-2.25-7.13l-.11,1s-1.31-3.82-3.19-5.3A254.78,254.78,0,0,1,213.11,214.88Z" transform="translate(-65.58 -46.52)"/><path class="cls-17" d="M215.78,189.36s-.85,20.92-2.28,25.7a.86.86,0,0,1-1.15-.48S214.58,203.17,215.78,189.36Z" transform="translate(-65.58 -46.52)"/><path class="cls-18" d="M213.58,211.48c-.75,3.59-1.05,2.21-1.05,2.21-.12.57-.18.89-.18.89a.86.86,0,0,0,1.15.48c1.43-4.78,2.28-25.7,2.28-25.7S214.33,207.9,213.58,211.48Z" transform="translate(-65.58 -46.52)"/><path class="cls-10" d="M210.9,195.3s-5,10.87-.6,17.95C210.3,213.25,202.94,207.44,210.9,195.3Z" transform="translate(-65.58 -46.52)"/><path class="cls-15" d="M323.79,302.56a33,33,0,0,0,5,9.08l-.46-1.52s3.8,5,7.08,7.42l-.6-1.31s3.9,3.9,6.7,4.59c1.29-2.58.85-8.08.85-8.08l.61,1.31c.32-4.05-1.06-10.2-1.06-10.2l.86,1.34a33.06,33.06,0,0,0-3.64-9.73l1.25.58c-6.17-10.44-14.06-8.11-14.06-8.11s-6.89,4.49-2.94,16Z" transform="translate(-65.58 -46.52)"/><path class="cls-16" d="M326.37,287.93s-6.89,4.49-2.94,16l.36-1.33a33,33,0,0,0,5,9.08l-.46-1.52s3.8,5,7.08,7.42l-.6-1.31s3.9,3.9,6.7,4.59C341.56,320.82,335.6,309.67,326.37,287.93Z" transform="translate(-65.58 -46.52)"/><path class="cls-17" d="M341.6,320.88s-13.75-26.2-15.73-32.94c0,0,.46-.86,1.43-.09C327.3,287.85,333.12,303.19,341.6,320.88Z" transform="translate(-65.58 -46.52)"/><path class="cls-18" d="M328.29,292.38c-1.79-4.85-.54-3.34-.54-3.34l-.45-1.19c-1-.77-1.43.09-1.43.09,2,6.74,15.73,32.94,15.73,32.94S330.08,297.24,328.29,292.38Z" transform="translate(-65.58 -46.52)"/><path class="cls-10" d="M342.07,310.66s-2.84-16.34-11.91-22.41C330.16,288.25,341.16,291,342.07,310.66Z" transform="translate(-65.58 -46.52)"/><path class="cls-15" d="M343,217.54a20.38,20.38,0,0,0,9-3.54l-1.49.08s5-3.29,7.45-6.85l-1.28.35s3.92-3.83,4.71-7.33c-2.43-2.62-7.76-4-7.76-4l1.29-.35c-3.89-1.84-9.89-2.16-9.89-2.16l1.33-.68a20.63,20.63,0,0,0-9.55,1.44l.62-1.45C327.09,197.65,329,209,329,209s4,10.76,15.27,9.5Z" transform="translate(-65.58 -46.52)"/><path class="cls-16" d="M329,209s4,10.76,15.27,9.5l-1.26-1a20.38,20.38,0,0,0,9-3.54l-1.49.08s5-3.29,7.45-6.85l-1.28.35s3.92-3.83,4.71-7.33C361.39,200.25,350.38,204.3,329,209Z" transform="translate(-65.58 -46.52)"/><path class="cls-17" d="M361.45,200.23s-25.86,9.15-32.45,9.43a1.53,1.53,0,0,1,0-1.94A293.47,293.47,0,0,0,361.45,200.23Z" transform="translate(-65.58 -46.52)"/><path class="cls-18" d="M333.39,208c-4.76.68-3.25-.45-3.25-.45l-1.17.18a1.53,1.53,0,0,0,0,1.94c6.59-.28,32.45-9.43,32.45-9.43S338.15,207.3,333.39,208Z" transform="translate(-65.58 -46.52)"/><path class="cls-10" d="M351.61,196s-15.89-1.94-22.13,8C329.48,204.05,332.59,190.35,351.61,196Z" transform="translate(-65.58 -46.52)"/><path class="cls-15" d="M155.9,240.66a32,32,0,0,0-11.15-5.83l1.41,1.32s-7.35-2.37-12.57-2.17l1.46,1s-6.82-1-10.52.7c0,4.05,3.64,9.89,3.64,9.89l-1.46-.95c2,4.86,7.11,10.61,7.11,10.61l-1.79-.75a32.08,32.08,0,0,0,9.86,7.8l-1.79.44c13.24,6.39,21.17-3.2,21.17-3.2s5.52-11.15-5.71-20.64Z" transform="translate(-65.58 -46.52)"/><path class="cls-16" d="M161.27,259.48s5.52-11.15-5.71-20.64l.34,1.82a32,32,0,0,0-11.15-5.83l1.41,1.32s-7.35-2.37-12.57-2.17l1.46,1s-6.82-1-10.52.7C124.53,235.64,138,243,161.27,259.48Z" transform="translate(-65.58 -46.52)"/><path class="cls-17" d="M124.45,235.6s31.21,17.55,37.4,23.43a1.46,1.46,0,0,1-1.63,1.37S144.57,248.16,124.45,235.6Z" transform="translate(-65.58 -46.52)"/><path class="cls-18" d="M156.46,256.13c4.89,3.92,2.55,3.31,2.55,3.31l1.21,1a1.46,1.46,0,0,0,1.63-1.37c-6.19-5.88-37.4-23.43-37.4-23.43S151.57,252.22,156.46,256.13Z" transform="translate(-65.58 -46.52)"/><path class="cls-10" d="M129.77,247.58s12.72,16,26.86,14.88C156.63,262.46,142.14,269,129.77,247.58Z" transform="translate(-65.58 -46.52)"/><polygon class="cls-19" points="87.15 173.75 84.91 175.11 133.91 195.42 135.56 193.58 87.15 173.75"/><polygon class="cls-20" points="87.15 173.75 84.91 175.11 91.2 104.79 93.3 99.89 87.15 173.75"/><path class="cls-21" d="M152.73,220.27l48.41,19.83-42.26-93.69Zm10-6.8,2.9-29.5,17.43,37.41Z" transform="translate(-65.58 -46.52)"/><polygon class="cls-22" points="117.5 174.86 100.07 137.45 99.63 141.89 113.92 173.47 117.5 174.86"/><path class="cls-19" d="M186,220.1a.59.59,0,0,0,.71.46l5.1-1.06-.51-1.12-4.84,1A.6.6,0,0,0,186,220.1Z" transform="translate(-65.58 -46.52)"/><path class="cls-19" d="M191.06,225.45a.6.6,0,0,0,.71.47l2.72-.55-.5-1.13-2.46.5A.6.6,0,0,0,191.06,225.45Z" transform="translate(-65.58 -46.52)"/><path class="cls-19" d="M192.57,229.13a.61.61,0,0,0,.72.47l2.85-.58-.51-1.13-2.58.53A.62.62,0,0,0,192.57,229.13Z" transform="translate(-65.58 -46.52)"/><path class="cls-19" d="M194.29,233.07a.61.61,0,0,0,.71.47l2.92-.59-.51-1.13-2.65.54A.6.6,0,0,0,194.29,233.07Z" transform="translate(-65.58 -46.52)"/><path class="cls-19" d="M177.2,201.1a.59.59,0,0,0,.71.47l5.38-1-.51-1.14-5.11,1A.61.61,0,0,0,177.2,201.1Z" transform="translate(-65.58 -46.52)"/><path class="cls-19" d="M182.23,206.45a.6.6,0,0,0,.7.48l3-.56-.52-1.13-2.7.51A.58.58,0,0,0,182.23,206.45Z" transform="translate(-65.58 -46.52)"/><path class="cls-19" d="M183.74,210.13a.6.6,0,0,0,.7.48l3.13-.59-.51-1.13-2.84.54A.59.59,0,0,0,183.74,210.13Z" transform="translate(-65.58 -46.52)"/><path class="cls-19" d="M187,214a.6.6,0,0,0,.73.44l1.61-.39-.5-1.12-1.4.34A.6.6,0,0,0,187,214Z" transform="translate(-65.58 -46.52)"/><path class="cls-19" d="M168.19,180.81a.6.6,0,0,0,.71.47l5.24-1.05-.51-1.13-5,1A.59.59,0,0,0,168.19,180.81Z" transform="translate(-65.58 -46.52)"/><path class="cls-19" d="M173.22,186.16a.6.6,0,0,0,.7.48l2.86-.54-.51-1.13-2.57.48A.6.6,0,0,0,173.22,186.16Z" transform="translate(-65.58 -46.52)"/><path class="cls-19" d="M174.73,189.84a.6.6,0,0,0,.7.48l3-.57-.51-1.13-2.71.51A.6.6,0,0,0,174.73,189.84Z" transform="translate(-65.58 -46.52)"/><path class="cls-19" d="M177.63,193.73a.61.61,0,0,0,.73.45l1.86-.46-.5-1.12-1.65.41A.59.59,0,0,0,177.63,193.73Z" transform="translate(-65.58 -46.52)"/><path class="cls-19" d="M158.59,159.66a.6.6,0,0,0,.72.46l5.23-1.16-.5-1.13-5,1.11A.61.61,0,0,0,158.59,159.66Z" transform="translate(-65.58 -46.52)"/><path class="cls-19" d="M163.62,165a.6.6,0,0,0,.72.46l2.85-.64-.5-1.13-2.62.59A.61.61,0,0,0,163.62,165Z" transform="translate(-65.58 -46.52)"/><path class="cls-19" d="M165.13,168.71a.61.61,0,0,0,.72.45l3-.67-.5-1.13-2.76.62A.6.6,0,0,0,165.13,168.71Z" transform="translate(-65.58 -46.52)"/><path class="cls-19" d="M166.84,172.65a.62.62,0,0,0,.73.45l3-.69-.5-1.12-2.81.64A.6.6,0,0,0,166.84,172.65Z" transform="translate(-65.58 -46.52)"/><polygon class="cls-23" points="87.15 173.75 93.3 99.89 89.19 172.09 135.56 193.58 87.15 173.75"/><path class="cls-24" d="M377.32,219.34c-5.6-19.56-33.95-46.26-55.2-32.18s-13.1,45.51-3,52.57,11.85-2.64,20.53-2.83,15.58,9.66,15.58,9.66C369.42,260.28,383.48,240.84,377.32,219.34Zm-24,13.07c-4-3.92-4.71-9.7-1.57-12.91s8.93-2.63,12.94,1.29,4.71,9.7,1.58,12.91S357.34,236.33,353.33,232.41Z" transform="translate(-65.58 -46.52)"/><g class="cls-25"><path class="cls-24" d="M374.69,221.18c3.46,12.09.53,23.53-5.23,28.79,7.42-3.86,11.82-16.81,7.86-30.63-5.6-19.56-33.95-46.26-55.2-32.18-.73.48-1.41,1-2.07,1.5C341.24,175.41,369.14,201.79,374.69,221.18Z" transform="translate(-65.58 -46.52)"/><path class="cls-26" d="M350.71,234.25c4,3.92,9.8,4.5,12.93,1.29a4.38,4.38,0,0,0,.29-.34c-3.19,1.28-7.44.3-10.6-2.79-3.87-3.79-4.65-9.31-1.86-12.57a6.61,6.61,0,0,0-2.34,1.5C346,224.55,346.7,230.33,350.71,234.25Z" transform="translate(-65.58 -46.52)"/></g><path class="cls-27" d="M322.55,233.16c-2.81-2.75-3.35-6.75-1.2-8.94s6.18-1.75,9,1,3.35,6.75,1.2,8.94S325.37,235.9,322.55,233.16Z" transform="translate(-65.58 -46.52)"/><path class="cls-28" d="M328.75,235.47a7.22,7.22,0,0,1-5.42-2.12c-2.64-2.56-3.07-6.37-1-8.52,1.74-1.76,4.62-1.82,7.07-.38-2.72-2-6.15-2.2-8.08-.23-2.15,2.19-1.61,6.19,1.2,8.94A7.71,7.71,0,0,0,328.75,235.47Z" transform="translate(-65.58 -46.52)"/><path class="cls-29" d="M314.55,218.26a5.58,5.58,0,1,1,8.24.26A5.81,5.81,0,0,1,314.55,218.26Z" transform="translate(-65.58 -46.52)"/><path class="cls-30" d="M315.52,218.44a5.8,5.8,0,0,1-.45-8.2,5.31,5.31,0,0,1,4.49-1.51,5.47,5.47,0,0,0-5.46,1.32,5.81,5.81,0,0,0,.45,8.21A6.43,6.43,0,0,0,318.3,220,6.36,6.36,0,0,1,315.52,218.44Z" transform="translate(-65.58 -46.52)"/><path class="cls-31" d="M320.24,204.44a5.46,5.46,0,1,1,7.88-.53A5.56,5.56,0,0,1,320.24,204.44Z" transform="translate(-65.58 -46.52)"/><path class="cls-32" d="M321.33,204.51a5.57,5.57,0,0,1-.86-7.84,5.38,5.38,0,0,1,3.95-1.88,5.43,5.43,0,0,0-5.05,1.82,5.56,5.56,0,0,0,.87,7.83,5.85,5.85,0,0,0,3.93,1.35A5.94,5.94,0,0,1,321.33,204.51Z" transform="translate(-65.58 -46.52)"/><path class="cls-33" d="M333.12,196.62a5.59,5.59,0,1,1,8.07-.54A5.71,5.71,0,0,1,333.12,196.62Z" transform="translate(-65.58 -46.52)"/><path class="cls-34" d="M334.1,196.68a5.69,5.69,0,0,1-.89-8,5.45,5.45,0,0,1,4.16-1.93,5.57,5.57,0,0,0-5.14,1.86,5.71,5.71,0,0,0,.89,8A6,6,0,0,0,337,198,6,6,0,0,1,334.1,196.68Z" transform="translate(-65.58 -46.52)"/><path class="cls-35" d="M376.33,222.78s5-13,14.75-12.56,14.87-3,14.87-3-8.32,25.52-23.17,24.84Z" transform="translate(-65.58 -46.52)"/><path class="cls-36" d="M376.77,224l5.18,7.49s-28.09,31.09-56,39.36C326,270.87,330.58,247.94,376.77,224Z" transform="translate(-65.58 -46.52)"/><path class="cls-37" d="M368.89,244.22c8-7.09,13.06-12.71,13.06-12.71L376.77,224c-5.33,2.8-10.06,5.53-14.33,8.17C361.7,243.18,368.89,244.22,368.89,244.22Z" transform="translate(-65.58 -46.52)"/><path class="cls-27" d="M396.76,224.39c6-7.3,9.19-17.13,9.19-17.13s-5.17,3.38-14.87,3c-5.3-.24-9.19,3.52-11.64,7h0s5.13-5.13,11.74,2.36A24.25,24.25,0,0,0,396.76,224.39Z" transform="translate(-65.58 -46.52)"/><path class="cls-38" d="M326,270.87l.18-.06c5.76-9.55,19.64-26.49,51.81-45.07l-1.2-1.72C330.58,247.94,326,270.87,326,270.87Z" transform="translate(-65.58 -46.52)"/><g class="cls-39"><path class="cls-24" d="M406,207.26s-5.17,3.38-14.87,3a10.68,10.68,0,0,0-5.66,1.37c5-1.89,14.05,1.84,14.05,1.84-4.85,14.65-18,15.44-18,15.44l-.6.48,1.9,2.75C397.63,232.78,406,207.26,406,207.26Z" transform="translate(-65.58 -46.52)"/><path class="cls-24" d="M382.78,213.44a3,3,0,0,0,.68-.58Z" transform="translate(-65.58 -46.52)"/></g><path class="cls-40" d="M101.76,271.56l9.8,20.48a7.44,7.44,0,0,0-2.25.71c-3.24,1.6-4.77,5.13-3.41,7.87s5.08,3.67,8.32,2.06a5.3,5.3,0,0,0,3-6.57l.13,0L107.2,275.32l15-9.17,7.43,14.33a7.49,7.49,0,0,0-2.23.7c-3.24,1.6-4.77,5.13-3.41,7.87s5.09,3.66,8.33,2.06,3.58-4.54,2.22-7.28l-11.92-24.27Z" transform="translate(-65.58 -46.52)"/><path class="cls-27" d="M307.45,314.72a12.06,12.06,0,0,0,7.34,4.28c5,1,10,7,6.9,15s-7.21,14.21-15.39,17.2-11.78-1.06-14.05-2.79-7.73-2.23-9-5.55-5.13-16.75,1.15-25.45S303.11,309.5,307.45,314.72Z" transform="translate(-65.58 -46.52)"/><path class="cls-41" d="M283.29,342.85c1.23,3.32,6.68,3.8,9,5.55s5.88,5.77,14.05,2.79,12.28-9.2,15.39-17.2-1.88-14-6.9-15a12.06,12.06,0,0,1-7.34-4.28c-4.34-5.22-16.73-6-23,2.68S282.07,339.53,283.29,342.85Z" transform="translate(-65.58 -46.52)"/><g class="cls-39"><path class="cls-36" d="M308.54,323.13l.23.11A1.2,1.2,0,0,1,308.54,323.13Z" transform="translate(-65.58 -46.52)"/><path class="cls-36" d="M308.77,323.24a.82.82,0,0,0,.19.09Z" transform="translate(-65.58 -46.52)"/><path class="cls-36" d="M283.29,342.85c-1.22-3.32-5.13-16.75,1.15-25.45a16.14,16.14,0,0,1,14.74-6.5c4.73.57,7.14,2.41,7.49,3.45,1.33,3.93-.07,7.67,1.87,8.78a14.44,14.44,0,0,1-6.09-4.79c-2.73-3.92-11.74-3.31-14.82,5.47s-3.37,19.77,2.16,20.4,5.24.16,8.12,4.26,15.46-.57,20.66-7.86a22.81,22.81,0,0,1-12.27,10.58c-8.17,3-11.78-1.06-14.05-2.79S284.52,346.17,283.29,342.85Z" transform="translate(-65.58 -46.52)"/></g><path class="cls-42" d="M313.61,326.3c2.12.32,5.44.58,5.95,3.43.48,2.69-1.52,8.4-5.24,11.22-4.11,3.12-6.14,2.56-4.26-1.45s3.42-5.84,3.15-8.11C312.79,327.68,310.13,325.77,313.61,326.3Z" transform="translate(-65.58 -46.52)"/><path class="cls-43" d="M307.42,314.2a5.18,5.18,0,0,0,4.34-5.41c-.19-4.68-11.42-8.61-12.56-12,0,0-.82,8.86,2.87,13.29C306.07,314.88,307.42,314.2,307.42,314.2Z" transform="translate(-65.58 -46.52)"/><path class="cls-44" d="M311.76,308.79a5.18,5.18,0,0,1-4.34,5.41,11.39,11.39,0,0,0-2.19-7.7c-2.75-3.8-6.37-7-6-9.71C300.34,300.18,311.57,304.11,311.76,308.79Z" transform="translate(-65.58 -46.52)"/><path class="cls-45" d="M308.57,318.3a10.64,10.64,0,0,1-.69-3.22c-.07-1.69-.5-6.58-2.68-8.51,0,0,2.47,2.7,2.15,8.12-.21,3.58.55,4,.55,4Z" transform="translate(-65.58 -46.52)"/><path class="cls-45" d="M306.69,322a3.33,3.33,0,0,1-1.15-.71s3.71-6.6,9.63-9.47c0,0,.76,0,1.29,1.06s-.3,1.25-.3,1.25S310.43,315.22,306.69,322Z" transform="translate(-65.58 -46.52)"/><path class="cls-46" d="M315.17,311.82s.76,0,1.29,1.06-.3,1.25-.3,1.25a5.26,5.26,0,0,0-.75.21h0s-.71-.06-.91-.53-.25-.66-2.56,1.34a32.28,32.28,0,0,0-5.71,6.59l0,0a3.73,3.73,0,0,1-.66-.49S309.25,314.69,315.17,311.82Z" transform="translate(-65.58 -46.52)"/><path class="cls-47" d="M315.29,311.79s.42-.15,1.06.86.23,1.48-.37,1.53S314.29,311.85,315.29,311.79Z" transform="translate(-65.58 -46.52)"/><path class="cls-48" d="M236.83,153.94s0,0,0-.05c0-.6.1-1.2.1-1.81a28.16,28.16,0,1,0-39.5,25.75h.05a28,28,0,0,0,35.79-11.95.83.83,0,0,0,.12-.16h0a28.06,28.06,0,0,0,3.45-11.79Z" transform="translate(-65.58 -46.52)"/><path class="cls-49" d="M226.23,170.5c-.78-.58-1.7-1.31-2.39-1.94,1.58-3.57,2.56-10.86,2.85-13.28a52.66,52.66,0,0,0,5.86-6.38c1.62,1.23,4,3.39,4.32,5.23a27.9,27.9,0,0,1-3.57,11.81C232.49,167.16,228.83,169.23,226.23,170.5Zm-16.29,6.94c-2.58.26-9.87.91-12.62.37a28.35,28.35,0,0,1-7.23-4.67,82.52,82.52,0,0,1,1.23-8.68c1.83,0,6.35.16,8.83.14,1.47,1.53,6.94,7,10.84,9C210.69,174.7,210.27,176.28,209.94,177.44Zm-13-43.92c1.73-.85,7.23-3.42,10.66-3.82,2.29.82,8.2,5.4,10.94,7.63-.28,2.31-1.26,7.61-1.65,9.68-3.42,1.92-12.09,4.38-14.08,4.93a85.77,85.77,0,0,1-7.5-5.49C195.27,145.31,195.29,141.64,197,133.52Zm30.28,3.57c-1.9-.28-5.42-.49-7.32-.6-1.2-1-7.93-6.46-11.3-8l.62-4.59a28.14,28.14,0,0,1,18.75,7.6A18.42,18.42,0,0,1,227.25,137.09Zm-15.82,35c-3.37-1.74-8.14-6.44-9.89-8.21.32-2.06,1.34-8.23,2.33-10.66,2.78-.78,10.25-3,13.68-4.84,2,1.5,6,5.38,7.62,6.9-.32,2.54-1.28,9.59-2.72,12.74A49,49,0,0,1,211.43,172.09Zm25.5-21a21.49,21.49,0,0,0-4.29-4,85.52,85.52,0,0,0-4-9.21,31.84,31.84,0,0,0,.9-4.87A28.09,28.09,0,0,1,236.93,151.05ZM191.27,130l4.24,3.13a67.83,67.83,0,0,0-1.69,12.76c-1.42,1.3-5.12,4.69-6.82,6.35a13.88,13.88,0,0,1-5.59-4.29c.07-1,.22-2.64.44-4.28A28.34,28.34,0,0,1,191.27,130Zm-10.7,22.08c0-.66.06-1.3.1-1.94.06-.17.11-.33.17-.47a16.52,16.52,0,0,0,5.6,4c.58,1.82,2.36,7.25,3.53,9.79-.34,1.81-1,5.76-1.29,8.39A28.09,28.09,0,0,1,180.57,152.07Zm21.74,27.42c3-.1,6.21-.39,7.77-.54,1.11.09,3.56.29,5.64.42a27.85,27.85,0,0,1-6.94.9A28.16,28.16,0,0,1,202.31,179.49Zm20.63-3.11a17.84,17.84,0,0,0,4.53-4.84c.87-.43,2-1,3.11-1.68A28.49,28.49,0,0,1,222.94,176.38Z" transform="translate(-65.58 -46.52)"/><path class="cls-50" d="M197.43,177.87a28.06,28.06,0,0,0,35.82-12,1.83,1.83,0,0,0,.13-.16h0a27.92,27.92,0,0,0,3.46-11.79h0s0,0,0,0c0-.61.09-1.21.09-1.82a28.19,28.19,0,0,0-33.48-27.68c.06,0,22.52,3,20.65,32.23S197.43,177.87,197.43,177.87Z" transform="translate(-65.58 -46.52)"/><path class="cls-51" d="M273,110.67l-7.81,19.77s26.77,30.39,59.67,21.95l7.77-19.64S313.9,117.65,273,110.67Z" transform="translate(-65.58 -46.52)"/><path class="cls-52" d="M273,110.67l-7.81,19.77a64.52,64.52,0,0,0,4.84,4.75h0s.64-17.33,9.92-14.35,21.23,13.35,21.23,13.35,22.62,1.52,29.36,3.83l2.09-5.27S313.9,117.65,273,110.67Z" transform="translate(-65.58 -46.52)"/><path class="cls-51" d="M251.52,98.86a353.62,353.62,0,0,1,51,28.91s41.2,1.92,56.12,7.11c0,0-28.53-20.24-49.94-29.89C308.73,105,271.1,97.65,251.52,98.86Z" transform="translate(-65.58 -46.52)"/><path class="cls-48" d="M302.55,127.77l-1,2.44s46.13,3.16,56.16,6.42l.93-1.75S342.57,128.51,302.55,127.77Z" transform="translate(-65.58 -46.52)"/><path class="cls-53" d="M301.58,130.21l1-2.44a283.68,283.68,0,0,0-51-28.91l-.73,1.84S290.85,121,301.58,130.21Z" transform="translate(-65.58 -46.52)"/><path class="cls-52" d="M326.75,121c-7.44,1.83-16.31,6.69-24.2,6.81,0,0,41.2,1.92,56.12,7.11,0,0-28.53-20.24-49.94-29.89C308.73,105,334.2,119.13,326.75,121Z" transform="translate(-65.58 -46.52)"/><path class="cls-21" d="M250.87,111.44s-3.45-1.15-5.69,4.67c-1.46,3.81.92,5-5.54,9l4,3.27s1.5-.66,1.68-1.65a3,3,0,0,1-1,1.94,5.52,5.52,0,0,0,2.58,1.13s.75-.25,1.19-2.07c0,0,.24,1.81-.42,2.36a14.39,14.39,0,0,0,4.37.11s-2.85-5.88-2.05-7.63c1.07-2.36,1.41-1.9,3-4.69S254.63,112.43,250.87,111.44Z" transform="translate(-65.58 -46.52)"/><path class="cls-54" d="M250,122.6c1.07-2.36,1.41-1.9,3-4.69s1.63-5.48-2.13-6.47c0,0-3.45-1.15-5.69,4.67-1.46,3.81.92,5-5.54,9,0,0,3.16,1.57,4.92-2.4s2.89-9.81,5-9.7,1.7,4.09,1.55,4.48c0,0,1.1-.75,1-3.12a1.72,1.72,0,0,1,.84,2.66c-1.19,1.87-6.63,4.14-.89,13.17C252,130.23,249.17,124.35,250,122.6Z" transform="translate(-65.58 -46.52)"/><path class="cls-21" d="M254.16,105.92l-.07,0a.84.84,0,0,1-.37-1.11c3.58-7.19,20.16-4.86,49.29,7l1.43.57a.82.82,0,0,1,.56,1,.81.81,0,0,1-1,.59c-.14,0-.38-.13-1.64-.64-27-10.94-44.2-13.77-47.2-7.74A.81.81,0,0,1,254.16,105.92Z" transform="translate(-65.58 -46.52)"/><path class="cls-55" d="M289.94,107.85c-5.1-1.84-9.48-3.48-21.55-5.65-11.72-2.11-14.48,3.07-14.63,3.37a.87.87,0,0,0,.33.33l.07,0a.81.81,0,0,0,1-.39c3-6,20.21-3.2,47.2,7.74,1.26.51,1.5.6,1.64.64a.81.81,0,0,0,1-.59C304.21,113.51,295.05,109.69,289.94,107.85Z" transform="translate(-65.58 -46.52)"/><path class="cls-56" d="M312.35,115.79c-.63,1.61-3.74,1.88-7,.61s-5.3-3.59-4.66-5.2,3.75-1.88,6.95-.61S313,114.19,312.35,115.79Z" transform="translate(-65.58 -46.52)"/><path class="cls-57" d="M312.35,115.79c.64-1.6-1.45-3.93-4.66-5.2,0,0,4.95,3.61,2.26,5s-9-1.88-9.31-4h0c-.21,1.57,1.79,3.65,4.76,4.82C308.61,117.67,311.72,117.4,312.35,115.79Z" transform="translate(-65.58 -46.52)"/><rect class="cls-58" x="249.25" y="106.98" width="7.4" height="3.34" rx="0.56" transform="translate(-6.74 257.35) rotate(-68.41)"/><path class="cls-59" d="M253.35,112.19l2.31-5.84a.57.57,0,0,0-.32-.73l-2.07-.82a.56.56,0,0,0-.72.32,1.67,1.67,0,0,1,1.95,1.66c.21,1.94-1.75,4.79-2.89,4.49a1.3,1.3,0,0,1-.89-1.54l-.48,1.23a.56.56,0,0,0,.31.72l2.07.82A.58.58,0,0,0,253.35,112.19Z" transform="translate(-65.58 -46.52)"/><path class="cls-26" d="M188.39,284a18.15,18.15,0,1,0,23.94,9.27A18.16,18.16,0,0,0,188.39,284Z" transform="translate(-65.58 -46.52)"/><path class="cls-51" d="M216.59,337.21a3.41,3.41,0,0,1-1.73,4.47l-1.63.72a3.42,3.42,0,0,1-4.48-1.73l-6.24-14.13c-.45-1,1.7-2.78,2.35-3.06l.34-.15c1.71-.76,4.66-1.38,5.15-.25Z" transform="translate(-65.58 -46.52)"/><path class="cls-48" d="M210.39,323.18c.49,1.09-.88,2.74-3,3.7s-4.31.85-4.78-.24.88-2.73,3.05-3.69S209.92,322.1,210.39,323.18Z" transform="translate(-65.58 -46.52)"/><path class="cls-60" d="M187,280.87a21.56,21.56,0,0,0,15.28,40.26l1.43,3.25a2.12,2.12,0,0,0,2.8,1.08l.31-.14a2.12,2.12,0,0,0,1.09-2.79l-1.44-3.25A21.56,21.56,0,0,0,187,280.87Zm15.57,35.24a17,17,0,1,1,8.65-22.37A17,17,0,0,1,202.59,316.11Z" transform="translate(-65.58 -46.52)"/><path class="cls-61" d="M205.17,320l.89-.46,1.52,3.42a1.53,1.53,0,0,1-.45,1.47Z" transform="translate(-65.58 -46.52)"/><g class="cls-62"><path class="cls-63" d="M207.6,293.94l-.19.18a2,2,0,0,1-2.79-.27A12,12,0,0,0,192,290a2,2,0,0,1-1.11-3.79,15.92,15.92,0,0,1,16.75,5.16A2,2,0,0,1,207.6,293.94Z" transform="translate(-65.58 -46.52)"/></g><path class="cls-64" d="M188.39,284a18.15,18.15,0,1,0,23.94,9.27A18.16,18.16,0,0,0,188.39,284Zm14.2,32.12a17,17,0,1,1,8.65-22.37A17,17,0,0,1,202.59,316.11Z" transform="translate(-65.58 -46.52)"/><path class="cls-65" d="M371.27,178s-31.1-24.3-31.33-24.41,3-1.54,4-1.16,24.94,15,26.74,16.42a3.06,3.06,0,0,1,1,3.75l1.52,3.22A4.84,4.84,0,0,1,371.27,178Z" transform="translate(-65.58 -46.52)"/><path class="cls-66" d="M371.27,178s-31.1-24.3-31.33-24.41.36-.3,1-.56h0s24.61,19.41,27,21.16,2.93,1.79,3.65.77a5.67,5.67,0,0,1,.78-.92l.84,1.78A4.84,4.84,0,0,1,371.27,178Z" transform="translate(-65.58 -46.52)"/><path class="cls-26" d="M344.37,153l22.55,13.75s-22.48-13.33-23.46-13.71Z" transform="translate(-65.58 -46.52)"/><path class="cls-67" d="M390.37,191.73a8.66,8.66,0,0,0-10.37-12h0a6.23,6.23,0,0,1-3.36-1.45c-1.1-1-3.24-3.54-4.21-2.85s-2.83,2.21-1.72,3.52,3.9,3.09,3.41,7h0a8.66,8.66,0,0,0,16.25,5.72Zm-2.32-1.09a6.1,6.1,0,1,1-2.93-8.11A6.08,6.08,0,0,1,388.05,190.64Z" transform="translate(-65.58 -46.52)"/><path class="cls-68" d="M389.1,187.78a6.57,6.57,0,1,0-6.2,6.91A6.57,6.57,0,0,0,389.1,187.78Zm-.48-.07a6.09,6.09,0,1,1-6.41-5.75A6.1,6.1,0,0,1,388.62,187.71Z" transform="translate(-65.58 -46.52)"/><path class="cls-69" d="M391.16,187.28h0c-.43-5.32-7.27-7.79-10.14-7s-4.38-.31-6.48-2.17-3.5-1.47-3.5-1.47h0a8.55,8.55,0,0,1,1.39-1.21c1-.69,3.11,1.81,4.21,2.85a6.23,6.23,0,0,0,3.36,1.45h0a8.67,8.67,0,0,1,11.16,7.52Z" transform="translate(-65.58 -46.52)"/><path class="cls-10" d="M370.88,178a3.45,3.45,0,0,0,1.19,1.78c.95.74,3,3,3,4.72a3.88,3.88,0,0,0-1.13-3.41Z" transform="translate(-65.58 -46.52)"/><path class="cls-63" d="M375.67,168.66s-38.55-8.43-38.79-8.55.71,3.26,1.69,3.85,27.43,9.65,29.7,10.12a3.07,3.07,0,0,0,3.5-1.67l3.45-.88A4.81,4.81,0,0,0,375.67,168.66Z" transform="translate(-65.58 -46.52)"/><path class="cls-70" d="M368.19,170.91a2.17,2.17,0,1,1-1-2.9A2.17,2.17,0,0,1,368.19,170.91Z" transform="translate(-65.58 -46.52)"/><path class="cls-48" d="M367.21,168a2.25,2.25,0,0,0-1.48-.16,2.38,2.38,0,0,1,.45.15,1.82,1.82,0,1,1-1.62,3.25l-.07,0a2.24,2.24,0,0,0,.79.67,2.16,2.16,0,1,0,1.93-3.87Z" transform="translate(-65.58 -46.52)"/><path class="cls-71" d="M375.67,168.66s-38.55-8.43-38.79-8.55c-.09-.05,0,.46.21,1.14h0s30.66,6.56,33.51,7.26,3.25,1.12,2.93,2.33a5.27,5.27,0,0,0-.22,1.18l1.91-.49A4.81,4.81,0,0,0,375.67,168.66Z" transform="translate(-65.58 -46.52)"/><path class="cls-26" d="M339.25,163.91l25,8.6s-24.62-8.82-25.52-9.33Z" transform="translate(-65.58 -46.52)"/><path class="cls-67" d="M394.25,163.12a8.65,8.65,0,0,0-10.62,2.65h0c-2.71,2.9-5.87,1.87-7.59,1.85s-1.69,2.38-1.6,3.58,3.37,1.24,4.88,1.42a6.33,6.33,0,0,1,3.26,1.66h0a8.66,8.66,0,1,0,11.67-11.16ZM388,176.47a6.1,6.1,0,1,1,8.1-2.92A6.1,6.1,0,0,1,388,176.47Z" transform="translate(-65.58 -46.52)"/><path class="cls-72" d="M395.92,167a6.57,6.57,0,1,0-1.37,9.19A6.57,6.57,0,0,0,395.92,167Zm-10.24,7.59a6.09,6.09,0,1,1,8.52,1.27A6.09,6.09,0,0,1,385.68,174.58Z" transform="translate(-65.58 -46.52)"/><path class="cls-69" d="M395.48,178.08h0c-4.37,3.06-10.64-.63-11.84-3.37s-3-3.16-5.81-3.59-3.36-1.76-3.36-1.76h0a8.24,8.24,0,0,0,0,1.84c.09,1.19,3.37,1.24,4.88,1.42a6.33,6.33,0,0,1,3.26,1.66h0a8.65,8.65,0,0,0,12.9,3.8Z" transform="translate(-65.58 -46.52)"/><path class="cls-10" d="M375.39,168.4a3.43,3.43,0,0,1,2.13-.23c1.17.26,4.21.4,5.52-.71a3.91,3.91,0,0,1-3.35,1.3Z" transform="translate(-65.58 -46.52)"/><path class="cls-73" d="M104.4,203l.63,31.48s-3.73.07-8.2-5.4l-2.78-34.26S99.54,200.84,104.4,203Z" transform="translate(-65.58 -46.52)"/><polygon class="cls-74" points="39.45 187.93 38.82 156.45 75.7 125.83 66.67 163.79 39.45 187.93"/><path class="cls-75" d="M104.4,203a28.7,28.7,0,0,1-10.35-8.18l37.4-29.68s.82-.59.76.41a16,16,0,0,1-.43,2.45l-35.1,27.69a31.33,31.33,0,0,0,7.63,5.76l36.47-29.84s.9-.4.5.77Z" transform="translate(-65.58 -46.52)"/><path class="cls-26" d="M131.16,166.67s5.39,5.46,8.13,6.13l-35,28.68S98,198,95.62,194.81Z" transform="translate(-65.58 -46.52)"/><path class="cls-63" d="M131.37,167.86,103,191.57l28.76-23.4.63.57-9.24,7.78,9.53-7.44s3.52,3.54,4.68,4l-33.1,28.36,35-28.68c-2.74-.67-8.13-6.13-8.13-6.13L95.62,194.81,131,167.48Z" transform="translate(-65.58 -46.52)"/><path class="cls-63" d="M104.19,200.33s29.33-24.14,31.58-25.93C135.77,174.4,112.8,192.36,104.19,200.33Z" transform="translate(-65.58 -46.52)"/></g></g></svg>