<svg xmlns="http://www.w3.org/2000/svg" xmlns:xlink="http://www.w3.org/1999/xlink" viewBox="0 0 368.84 399.64"><defs><style>.cls-1,.cls-10,.cls-12,.cls-14,.cls-16,.cls-18,.cls-27,.cls-29,.cls-3,.cls-31,.cls-33,.cls-42,.cls-46,.cls-54,.cls-58,.cls-6,.cls-9{isolation:isolate;}.cls-2{fill:#f7d2ba;}.cls-3,.cls-53,.cls-54{fill:#cfd1d2;}.cls-3,.cls-64,.cls-69,.cls-71,.cls-76{opacity:0.5;}.cls-4,.cls-6{fill:#694410;}.cls-14,.cls-18,.cls-27,.cls-29,.cls-31,.cls-33,.cls-5,.cls-54,.cls-58,.cls-6{opacity:0.4;}.cls-7{fill:#e8b88f;}.cls-8{fill:#4e2b07;}.cls-10,.cls-9{opacity:0.3;}.cls-9{fill:url(#linear-gradient);}.cls-10,.cls-25,.cls-76{fill:#fff;}.cls-11,.cls-12{fill:#9dc52e;}.cls-12,.cls-16{opacity:0.65;}.cls-13,.cls-14{fill:#c6d644;}.cls-15,.cls-16{fill:#67b660;}.cls-17,.cls-18{fill:#7dd563;}.cls-19{fill:#d1b22c;}.cls-20{fill:#a68623;}.cls-21{fill:#f6df5c;}.cls-22{fill:#b89e27;}.cls-23{fill:#fcf69a;}.cls-24{fill:#d4d4d5;}.cls-26{fill:#ca1e49;}.cls-27{fill:#910e36;}.cls-28,.cls-29{fill:#5494d2;}.cls-30,.cls-31{fill:#ebb92b;}.cls-32,.cls-33{fill:#7fc55c;}.cls-34{fill:#5c3a0d;}.cls-35{fill:#b21943;}.cls-36{fill:#f9ecbb;}.cls-37,.cls-46{fill:#babcbe;}.cls-38{fill:#81aadb;}.cls-39{fill:#d36476;}.cls-40{fill:#7bb752;}.cls-41{fill:#754618;}.cls-42{fill:#885218;}.cls-42,.cls-46{opacity:0.6;}.cls-43{fill:#7f511b;}.cls-44{fill:#59595b;}.cls-45{fill:#f9f9f9;}.cls-47{fill:#434244;}.cls-48{fill:#6dbab7;}.cls-49{fill:#afd6d3;}.cls-50{opacity:0.8;}.cls-51,.cls-58{fill:#e5e5e6;}.cls-52{fill:#53938d;}.cls-55{fill:#d46537;}.cls-56{fill:url(#linear-gradient-2);}.cls-57{fill:#6d6e70;}.cls-59{fill:url(#linear-gradient-3);}.cls-60{fill:#6b4fb1;}.cls-61{fill:#7568bb;}.cls-62{fill:#aca0ca;}.cls-63{fill:#dbd0c6;}.cls-64,.cls-66{fill:#bcb3ac;}.cls-64,.cls-66,.cls-70,.cls-71{mix-blend-mode:multiply;}.cls-65{fill:#efe8e1;}.cls-67,.cls-70,.cls-71{fill:#99000a;}.cls-68{fill:#76000a;}.cls-72,.cls-73,.cls-74{fill:#bb000a;}.cls-73{opacity:0.4;}.cls-73,.cls-74{mix-blend-mode:screen;}.cls-75{fill:#ff000a;}.cls-77{fill:#c9000a;}</style><linearGradient id="linear-gradient" x1="198.6" y1="42.72" x2="173.1" y2="7.88" gradientTransform="matrix(1, 0, 0, -1, 0, 402.46)" gradientUnits="userSpaceOnUse"><stop offset="0" stop-color="#8b5f1e"/><stop offset="1" stop-color="#fff"/></linearGradient><linearGradient id="linear-gradient-2" x1="622.3" y1="1282.66" x2="635.43" y2="1282.66" gradientTransform="matrix(1, -0.05, 0.05, 1, -378.89, -1111.46)" gradientUnits="userSpaceOnUse"><stop offset="0" stop-color="#db846d"/><stop offset="1" stop-color="#991920"/></linearGradient><linearGradient id="linear-gradient-3" x1="1468.45" y1="-286.78" x2="1481.59" y2="-286.78" gradientTransform="matrix(0.6, 0.8, 0.8, -0.6, -322.98, -1233.35)" xlink:href="#linear-gradient-2"/></defs><title>about_image</title><g class="cls-1"><g id="Layer_1" data-name="Layer 1"><g id="OBJECTS"><circle class="cls-2" cx="184.42" cy="184.42" r="184.42"/><path class="cls-3" d="M242.69,396.79c0,2.42-27.9,4.39-62.3,4.39s-62.3-2-62.3-4.39,27.89-4.38,62.3-4.38S242.69,394.37,242.69,396.79Z" transform="translate(0 -1.54)"/><path class="cls-4" d="M158.61,300.14,157.32,364l12.2-6,11.59,4.16L192.7,358l12.19,6V300.14s-.31-48.81,9.53-66.23,22.73-6.06,34.85,10.6c0,0,.75-12.11-4.55-17.41,0,0,24.24,12.87,41.66,4.54,0,0-35.6-2.27-49.23-17.42s-39.39,2.26-39.39,2.26,9.85-26.5,33.33-34.08,28-33.32,28-33.32-9.09,16.66-27.26,19.69-36.34,20.46-39.41,23.49c0,0,.76-20.45,10.61-32.57s-2.28-33.32-2.28-33.32-.75,18.93-10.6,28.78-28.73,12.87-29.5,27.26c0,0-3-15.15-31.81-13.63,0,0,30.3,15.15,32.57,49.23,0,0-16.3-11.23-31.81-6.06-22.72,7.53-46.18-7.57-46.18-7.57a27,27,0,0,0,23.46,15.1s-7.57,5.3-6.82,11.36c0,0,22.72-23.47,57.36,0C162.78,234.48,158.61,300.14,158.61,300.14Z" transform="translate(0 -1.54)"/><g class="cls-5"><path class="cls-4" d="M221.75,222.81s-19.19,3-21.71,27.26-4.55,98-4.55,98-6.59-21.19-6.59-26.73c-.16,3.47-1.16,23.23-3,28.75-2,6.06-14.14,4-15.65,0s-1.52-15.65-1.52-15.65l-5.55,19.19s.5-70.69,2.52-93.41-1.51-30.8-4-31.31-35.16-23.22-60.79,1.27c4.28-3.8,25.67-20.18,56.55.75,5.36,3.64,1.19,69.26,1.19,69.26l-1.29,63.89,12.2-6,11.59,4.16,11.59-4.16,12.19,6V300.14s-.31-48.81,9.53-66.23,22.73-6.06,34.85,10.6C249.27,244.48,242.42,221.29,221.75,222.81Z" transform="translate(0 -1.54)"/><path class="cls-4" d="M188.9,321.29v-.53A4.69,4.69,0,0,0,188.9,321.29Z" transform="translate(0 -1.54)"/></g><path class="cls-6" d="M174.77,266.58s-2.51,55.41,2.13,74.81C176.9,341.39,178.62,294.79,174.77,266.58Z" transform="translate(0 -1.54)"/><path class="cls-6" d="M175.53,197.76s-1.8,36.76,1.24,49.64C176.77,247.4,178,216.48,175.53,197.76Z" transform="translate(0 -1.54)"/><path class="cls-6" d="M187.1,236.26s-7.71,61.38-.67,82.6C186.42,318.86,192.22,267.26,187.1,236.26Z" transform="translate(0 -1.54)"/><path class="cls-6" d="M237.15,214.22c-13.64-15.15-39.39,2.27-39.39,2.27s9.85-26.5,33.33-34.08,28-33.32,28-33.32c-11.67,32.7-27.67,28.24-44.31,39.51S194,222.14,194,222.14c17.16-12.55,31.24-15.88,46.86-2.56s45.52,12.06,45.52,12.06S250.78,229.37,237.15,214.22Z" transform="translate(0 -1.54)"/><path class="cls-6" d="M161.78,190.64s-1.54-11.52,11.52-19.46,29.25-17.44,27.43-43.8c-.32,4-2,19.28-10.54,27.77-9.85,9.84-28.78,12.87-29.54,27.26,0,0-3-15.15-31.81-13.63C128.84,168.78,156.66,170.16,161.78,190.64Z" transform="translate(0 -1.54)"/><path class="cls-6" d="M189.33,199c5.11-7.31,21-21,21-21h0a115.27,115.27,0,0,0-17.91,14.3s.51-13.63,6-25.23C190.75,181,189.33,199,189.33,199Z" transform="translate(0 -1.54)"/><polygon class="cls-7" points="192.7 356.46 181.11 360.62 169.52 356.46 157.32 362.49 180.78 395.07 204.89 362.39 192.7 356.46"/><path class="cls-8" d="M180.78,382.86a27.55,27.55,0,0,0-8.63,1.91l8.63,11.84,8.64-11.84A27.62,27.62,0,0,0,180.78,382.86Z" transform="translate(0 -1.54)"/><polygon class="cls-9" points="192.7 356.46 204.89 362.49 180.78 395.07 192.7 356.46"/><polygon class="cls-10" points="157.32 362.49 169.52 356.46 180.78 395.07 157.32 362.49"/><path class="cls-11" d="M292.52,241.24a30.85,30.85,0,0,0,11.17-1.35l-1.71-.23s6.6-1.89,10.34-4.51l-1.56,0s5.52-2.58,7.38-5.48c-2.05-2.76-7.72-5-7.72-5l1.55-.06c-3.9-2.36-10.62-3.8-10.62-3.8l1.69-.34a31,31,0,0,0-11.23-.59l1.1-1.15C279.91,220.78,279,231,279,231s1.62,10.18,14.72,11.26Z" transform="translate(0 -1.54)"/><path class="cls-12" d="M279,231.05s1.62,10.18,14.72,11.26l-1.18-1.07a30.85,30.85,0,0,0,11.17-1.35l-1.71-.23s6.6-1.89,10.34-4.51l-1.56,0s5.52-2.58,7.38-5.48C318.14,229.72,304.52,231.11,279,231.05Z" transform="translate(0 -1.54)"/><path class="cls-13" d="M318.21,229.71s-31.88,3-39.43,1.92a1.16,1.16,0,0,1,.34-1.61l.17-.09S297,230.77,318.21,229.71Z" transform="translate(0 -1.54)"/><path class="cls-14" d="M284.22,231c-5.59-.33-3.56-1-3.56-1l-1.37-.07a1.16,1.16,0,0,0-.6,1.53.7.7,0,0,0,.09.17c7.55,1,39.43-1.92,39.43-1.92S289.81,231.36,284.22,231Z" transform="translate(0 -1.54)"/><path class="cls-10" d="M308.2,224.13s-17.5-4.78-27.33,2.7C280.87,226.83,288.17,215.48,308.2,224.13Z" transform="translate(0 -1.54)"/><path class="cls-11" d="M256.08,186A14.7,14.7,0,0,0,263,187l-1-.47a23.5,23.5,0,0,0,7.15-1.71l-.94-.24s3.84-1.05,5.58-3c-.63-2.52-3.53-5.25-3.53-5.25l.94.23a23.26,23.26,0,0,0-5.51-4.87h1.08a14.84,14.84,0,0,0-6.57-2.45l.91-.7c-8.17-.76-11,7.12-11,7.12s-1.23,8.26,6.34,11.43Z" transform="translate(0 -1.54)"/><path class="cls-12" d="M250.21,175.66s-1.23,8.26,6.34,11.43l-.47-1.05A14.7,14.7,0,0,0,263,187l-1-.47a23.5,23.5,0,0,0,7.15-1.71l-.94-.24s3.84-1.05,5.58-3C273.85,181.54,265.42,180.22,250.21,175.66Z" transform="translate(0 -1.54)"/><path class="cls-13" d="M273.89,181.55s-19.64-3.32-23.92-5.47a1.09,1.09,0,0,1,.66-1.24A216,216,0,0,0,273.89,181.55Z" transform="translate(0 -1.54)"/><path class="cls-14" d="M253.34,176.57c-3.26-1.25-1.9-1.43-1.9-1.43l-.81-.3a1.09,1.09,0,0,0-.66,1.24c4.28,2.15,23.92,5.47,23.92,5.47S256.6,177.81,253.34,176.57Z" transform="translate(0 -1.54)"/><path class="cls-10" d="M269.13,175.4s-9.4-6.84-16.88-2.71C252.25,172.69,259.06,165.08,269.13,175.4Z" transform="translate(0 -1.54)"/><path class="cls-11" d="M222.3,146.6a27,27,0,0,0,8-4l-1.33.33a36.58,36.58,0,0,0,6.62-5.93l-1.17.48s3.48-3.28,4.17-5.76c-2.21-1.3-7-1.22-7-1.22l1.16-.47a36.67,36.67,0,0,0-8.88.36l1.18-.69a27,27,0,0,0-8.54,2.71l.54-1.09c-9.23,4.94-7.41,12.15-7.41,12.15s3.71,6.45,13.76,3.56Z" transform="translate(0 -1.54)"/><path class="cls-12" d="M209.68,143.48s3.71,6.45,13.76,3.56l-1.14-.4a27,27,0,0,0,8-4L229,143a36.58,36.58,0,0,0,6.62-5.93l-1.17.44s3.48-3.28,4.17-5.76C238.63,131.69,228.78,136.4,209.68,143.48Z" transform="translate(0 -1.54)"/><path class="cls-13" d="M238.68,131.66s-23.11,10.84-29,12.23c0,0-.73-.46,0-1.29C209.63,142.6,223.1,138.26,238.68,131.66Z" transform="translate(0 -1.54)"/><path class="cls-14" d="M213.59,142c-4.25,1.32-2.91.29-2.91.29l-1.05.33c-.69.83,0,1.29,0,1.29,5.9-1.39,29-12.23,29-12.23S217.85,140.65,213.59,142Z" transform="translate(0 -1.54)"/><path class="cls-10" d="M229.82,130.65s-14.26,1.61-19.76,9.41C210.06,140.06,212.73,130.35,229.82,130.65Z" transform="translate(0 -1.54)"/><path class="cls-11" d="M85.42,233.32a31,31,0,0,0-5.14,10L81.42,242s-2.15,6.5-2.1,11l.83-1.31s-1,6,.36,9.11c3.4-.15,8.37-3.6,8.37-3.6l-.83,1.31c4.13-1.91,9.06-6.64,9.06-6.64l-.67,1.58a30.91,30.91,0,0,0,6.76-8.93l.33,1.54c5.65-11.79-2.21-18.27-2.21-18.27s-9.23-4.31-17.43,5.88Z" transform="translate(0 -1.54)"/><path class="cls-12" d="M101.35,227.81s-9.23-4.31-17.43,5.88l1.53-.37a31,31,0,0,0-5.14,10L81.42,242s-2.15,6.5-2.1,11l.83-1.31s-1,6,.36,9.11C80.54,260.82,87,248.83,101.35,227.81Z" transform="translate(0 -1.54)"/><path class="cls-13" d="M80.5,260.89S95.91,233,101,227.32a1.15,1.15,0,0,1,1.13,1.17,1.23,1.23,0,0,1,0,.19S91.49,242.84,80.5,260.89Z" transform="translate(0 -1.54)"/><path class="cls-14" d="M98.42,232.15c3.39-4.43,2.83-2.37,2.83-2.37.53-.72.83-1.1.83-1.1a1.15,1.15,0,0,0-.92-1.34l-.19,0c-5.08,5.65-20.49,33.57-20.49,33.57S95,236.57,98.42,232.15Z" transform="translate(0 -1.54)"/><path class="cls-10" d="M90.67,255.73s13.69-11.76,13.07-24C103.74,231.71,108.93,244,90.67,255.73Z" transform="translate(0 -1.54)"/><path class="cls-15" d="M211,117.27a26.08,26.08,0,0,0-3-10.19v1.63s-3-5.84-6.24-8.88l.29,1.45s-3.51-4.71-6.81-5.94c-2.58,2.39-4,8.06-4,8.06l-.29-1.44c-1.9,4.06-2.42,10.58-2.42,10.58l-.59-1.52a25.94,25.94,0,0,0,1,10.58l-1.36-.82c4,11.79,14.82,10.89,14.82,10.89s10.39-3.27,9.6-15.69Z" transform="translate(0 -1.54)"/><path class="cls-16" d="M202.32,131.67s10.39-3.27,9.6-15.69l-.94,1.29a26.08,26.08,0,0,0-3-10.19v1.63s-3-5.84-6.24-8.88l.29,1.45s-3.51-4.71-6.81-5.94C195.19,95.34,198.64,107.81,202.32,131.67Z" transform="translate(0 -1.54)"/><path class="cls-17" d="M195.17,95.27s7.76,29.26,7.79,36.49a1.31,1.31,0,0,1-1.84-.17h0A365.36,365.36,0,0,0,195.17,95.27Z" transform="translate(0 -1.54)"/><path class="cls-18" d="M201.53,126.78c.48,5.28-.55,3.51-.55,3.51.08.83.13,1.29.13,1.29a1.31,1.31,0,0,0,1.84.19h0c0-7.23-7.79-36.49-7.79-36.49S201.05,121.48,201.53,126.78Z" transform="translate(0 -1.54)"/><path class="cls-10" d="M190.8,105.59s-2.42,17.16,6.83,25C197.63,130.64,184.71,125.78,190.8,105.59Z" transform="translate(0 -1.54)"/><path class="cls-15" d="M156,158.57a18.38,18.38,0,0,0,.07-7.35l-.31,1.08a26.67,26.67,0,0,0-2.25-7.13l-.11,1s-1.31-3.82-3.19-5.3c-2.14,1-4.23,4.51-4.23,4.51l.11-1a26.28,26.28,0,0,0-3.67,6.51l-.09-1.13a18.66,18.66,0,0,0-1.45,7.22l-.71-.82c.2,8.59,7.37,10.19,7.37,10.19s7.35-.07,9.32-8.44Z" transform="translate(0 -1.54)"/><path class="cls-16" d="M147.53,166.36s7.35-.07,9.32-8.44l-.86.65a18.38,18.38,0,0,0,.07-7.35l-.31,1.08a26.67,26.67,0,0,0-2.25-7.13l-.11,1s-1.31-3.82-3.19-5.3A253.38,253.38,0,0,1,147.53,166.36Z" transform="translate(0 -1.54)"/><path class="cls-17" d="M150.2,140.84s-.85,20.92-2.28,25.7a.86.86,0,0,1-1.13-.44l0,0S149,154.65,150.2,140.84Z" transform="translate(0 -1.54)"/><path class="cls-18" d="M148,163c-.75,3.59-1.05,2.21-1.05,2.21-.12.57-.18.89-.18.89a.87.87,0,0,0,1.11.5l0,0c1.43-4.78,2.28-25.7,2.28-25.7S148.75,159.38,148,163Z" transform="translate(0 -1.54)"/><path class="cls-10" d="M145.32,146.78s-5,10.87-.6,17.95C144.72,164.73,137.36,158.92,145.32,146.78Z" transform="translate(0 -1.54)"/><path class="cls-15" d="M258.21,254a33.13,33.13,0,0,0,5,9.08l-.46-1.52s3.8,5,7.08,7.42l-.6-1.31s3.9,3.9,6.7,4.59c1.29-2.58.85-8.08.85-8.08l.61,1.31c.32-4-1.06-10.2-1.06-10.2l.86,1.34a33,33,0,0,0-3.64-9.73l1.25.58c-6.17-10.44-14.06-8.11-14.06-8.11s-6.89,4.49-2.94,16Z" transform="translate(0 -1.54)"/><path class="cls-16" d="M260.79,239.41s-6.89,4.49-2.94,16l.36-1.33a33.13,33.13,0,0,0,5,9.08l-.46-1.52s3.8,5,7.08,7.42l-.6-1.31s3.9,3.9,6.7,4.59C276,272.3,270,261.15,260.79,239.41Z" transform="translate(0 -1.54)"/><path class="cls-17" d="M276,272.36s-13.75-26.2-15.73-32.94c0,0,.46-.86,1.43-.09C261.72,239.33,267.54,254.67,276,272.36Z" transform="translate(0 -1.54)"/><path class="cls-18" d="M262.71,243.86c-1.79-4.85-.54-3.34-.54-3.34l-.45-1.19c-1-.77-1.43.09-1.43.09,2,6.74,15.73,32.94,15.73,32.94S264.5,248.72,262.71,243.86Z" transform="translate(0 -1.54)"/><path class="cls-10" d="M276.49,262.14s-2.84-16.34-11.91-22.41C264.58,239.73,275.58,242.48,276.49,262.14Z" transform="translate(0 -1.54)"/><path class="cls-15" d="M277.42,169a20.3,20.3,0,0,0,9-3.54l-1.49.08s5-3.29,7.45-6.85l-1.28.35s3.92-3.83,4.71-7.33c-2.43-2.62-7.76-4-7.76-4l1.29-.35c-3.89-1.84-9.89-2.16-9.89-2.16l1.33-.68a20.64,20.64,0,0,0-9.55,1.44l.62-1.45c-10.34,4.6-8.43,15.95-8.43,15.95s4,10.76,15.27,9.5Z" transform="translate(0 -1.54)"/><path class="cls-16" d="M263.42,160.48s4,10.76,15.27,9.5l-1.26-1a20.3,20.3,0,0,0,9-3.54l-1.49.08s5-3.29,7.45-6.85l-1.28.35s3.92-3.83,4.71-7.33C295.81,151.73,284.8,155.78,263.42,160.48Z" transform="translate(0 -1.54)"/><path class="cls-17" d="M295.87,151.71s-25.86,9.15-32.45,9.43a1.54,1.54,0,0,1,0-1.94A293.31,293.31,0,0,0,295.87,151.71Z" transform="translate(0 -1.54)"/><path class="cls-18" d="M267.81,159.48c-4.76.68-3.25-.45-3.25-.45l-1.17.18a1.54,1.54,0,0,0,0,1.94c6.59-.28,32.45-9.43,32.45-9.43S272.57,158.78,267.81,159.48Z" transform="translate(0 -1.54)"/><path class="cls-10" d="M286,147.48s-15.89-1.94-22.13,8C263.9,155.53,267,141.83,286,147.48Z" transform="translate(0 -1.54)"/><path class="cls-15" d="M90.32,192.14a32,32,0,0,0-11.15-5.83l1.41,1.32s-7.35-2.37-12.57-2.17l1.46,1s-6.82-1-10.52.7c0,4.05,3.64,9.89,3.64,9.89l-1.46-1c2,4.86,7.11,10.61,7.11,10.61L66.45,206a32.08,32.08,0,0,0,9.86,7.8l-1.79.44c13.24,6.39,21.17-3.2,21.17-3.2s5.52-11.15-5.71-20.64Z" transform="translate(0 -1.54)"/><path class="cls-16" d="M95.69,211s5.52-11.15-5.71-20.64l.34,1.82a32,32,0,0,0-11.15-5.83l1.41,1.32s-7.35-2.37-12.57-2.17l1.46,1s-6.82-1-10.52.7C59,187.12,72.42,194.48,95.69,211Z" transform="translate(0 -1.54)"/><path class="cls-17" d="M58.87,187.08s31.21,17.55,37.4,23.43a1.46,1.46,0,0,1-1.54,1.38h-.09S79,199.64,58.87,187.08Z" transform="translate(0 -1.54)"/><path class="cls-18" d="M90.88,207.61c4.89,3.92,2.55,3.31,2.55,3.31l1.21,1a1.45,1.45,0,0,0,1.62-1.28.28.28,0,0,0,0-.09c-6.19-5.88-37.4-23.43-37.4-23.43S86,203.7,90.88,207.61Z" transform="translate(0 -1.54)"/><path class="cls-10" d="M64.19,199.06s12.72,16,26.86,14.88C91.05,213.94,76.56,220.48,64.19,199.06Z" transform="translate(0 -1.54)"/><polygon class="cls-19" points="87.15 170.21 84.91 171.57 133.91 191.88 135.56 190.04 87.15 170.21"/><polygon class="cls-20" points="87.15 170.21 84.91 171.57 91.2 101.25 93.3 96.35 87.15 170.21"/><path class="cls-21" d="M87.15,171.75l48.41,19.83L93.3,97.89Zm10-6.8,2.9-29.5,17.43,37.41Z" transform="translate(0 -1.54)"/><polygon class="cls-22" points="117.5 171.32 100.07 133.91 99.63 138.35 113.92 169.93 117.5 171.32"/><path class="cls-19" d="M120.42,171.58a.58.58,0,0,0,.69.46h0l5.1-1.06-.51-1.12-4.84,1a.6.6,0,0,0-.46.71Z" transform="translate(0 -1.54)"/><path class="cls-19" d="M125.48,176.93a.6.6,0,0,0,.71.47h0l2.72-.55-.5-1.13-2.46.5a.6.6,0,0,0-.47.71Z" transform="translate(0 -1.54)"/><path class="cls-19" d="M127,180.61a.61.61,0,0,0,.72.47l2.85-.58-.51-1.13-2.58.53A.62.62,0,0,0,127,180.61Z" transform="translate(0 -1.54)"/><path class="cls-19" d="M128.71,184.55a.62.62,0,0,0,.71.47l2.92-.59-.51-1.13-2.65.54a.6.6,0,0,0-.47.71Z" transform="translate(0 -1.54)"/><path class="cls-19" d="M111.62,152.58a.59.59,0,0,0,.69.47h0l5.38-1-.51-1.14-5.11,1A.61.61,0,0,0,111.62,152.58Z" transform="translate(0 -1.54)"/><path class="cls-19" d="M116.65,157.93a.6.6,0,0,0,.7.48h0l3-.56-.52-1.13-2.7.51a.58.58,0,0,0-.49.66S116.65,157.92,116.65,157.93Z" transform="translate(0 -1.54)"/><path class="cls-19" d="M118.16,161.61a.6.6,0,0,0,.7.48h0l3.13-.59-.51-1.13-2.84.54a.58.58,0,0,0-.48.68Z" transform="translate(0 -1.54)"/><path class="cls-19" d="M121.42,165.48a.6.6,0,0,0,.72.44h0l1.61-.39-.5-1.12-1.4.34a.6.6,0,0,0-.44.72Z" transform="translate(0 -1.54)"/><path class="cls-19" d="M102.61,132.29a.6.6,0,0,0,.71.47h0l5.24-1-.51-1.13-5,1a.59.59,0,0,0-.44.71Z" transform="translate(0 -1.54)"/><path class="cls-19" d="M107.64,137.64a.6.6,0,0,0,.7.48h0l2.86-.54-.51-1.13-2.57.48a.6.6,0,0,0-.48.7Z" transform="translate(0 -1.54)"/><path class="cls-19" d="M109.15,141.32a.6.6,0,0,0,.7.48h0l3-.57-.51-1.13-2.71.51a.6.6,0,0,0-.48.7Z" transform="translate(0 -1.54)"/><path class="cls-19" d="M112.05,145.21a.61.61,0,0,0,.73.45l1.86-.46-.5-1.12-1.65.41a.58.58,0,0,0-.44.71Z" transform="translate(0 -1.54)"/><path class="cls-19" d="M93,111.14a.6.6,0,0,0,.71.46h0L99,110.44l-.5-1.13-5,1.11A.61.61,0,0,0,93,111.14Z" transform="translate(0 -1.54)"/><path class="cls-19" d="M98,116.48a.6.6,0,0,0,.71.46h0l2.85-.64-.5-1.13-2.62.59A.61.61,0,0,0,98,116.48Z" transform="translate(0 -1.54)"/><path class="cls-19" d="M99.55,120.19a.61.61,0,0,0,.72.45l3-.67-.5-1.13-2.76.62a.6.6,0,0,0-.46.71Z" transform="translate(0 -1.54)"/><path class="cls-19" d="M101.26,124.13a.62.62,0,0,0,.73.45l3-.69-.5-1.12-2.81.64A.6.6,0,0,0,101.26,124.13Z" transform="translate(0 -1.54)"/><polygon class="cls-23" points="87.15 170.21 93.3 96.35 89.19 168.55 135.56 190.04 87.15 170.21"/><path class="cls-24" d="M311.74,170.82c-5.6-19.56-33.95-46.26-55.2-32.18s-13.1,45.51-3,52.57,11.85-2.64,20.53-2.83S289.65,198,289.65,198C303.84,211.76,317.9,192.32,311.74,170.82Zm-24,13.07c-4-3.92-4.71-9.7-1.57-12.91s8.93-2.63,12.94,1.29,4.71,9.7,1.58,12.91-8.93,2.63-12.94-1.29Z" transform="translate(0 -1.54)"/><path class="cls-24" d="M309.11,172.66c3.46,12.09.53,23.53-5.23,28.79,7.42-3.86,11.82-16.81,7.86-30.63-5.6-19.56-33.95-46.26-55.2-32.18-.73.48-1.41,1-2.07,1.5C275.66,126.89,303.56,153.27,309.11,172.66Z" transform="translate(0 -1.54)"/><path class="cls-25" d="M285.13,185.73c4,3.92,9.8,4.5,12.93,1.29.1-.11.2-.22.29-.34-3.19,1.28-7.44.3-10.6-2.79-3.87-3.79-4.65-9.31-1.86-12.57a6.57,6.57,0,0,0-2.34,1.5C280.42,176,281.12,181.81,285.13,185.73Z" transform="translate(0 -1.54)"/><path class="cls-26" d="M257,184.64c-2.81-2.75-3.35-6.75-1.2-8.94s6.18-1.75,9,1,3.35,6.75,1.2,8.94S259.79,187.38,257,184.64Z" transform="translate(0 -1.54)"/><path class="cls-27" d="M263.17,187a7.19,7.19,0,0,1-5.42-2.12c-2.64-2.56-3.07-6.37-1-8.52,1.74-1.76,4.62-1.82,7.07-.38-2.72-2-6.15-2.2-8.08-.23-2.15,2.19-1.61,6.19,1.2,8.94A7.71,7.71,0,0,0,263.17,187Z" transform="translate(0 -1.54)"/><path class="cls-28" d="M249,169.74a5.58,5.58,0,1,1,8.24.26,5.81,5.81,0,0,1-8.21-.23Z" transform="translate(0 -1.54)"/><path class="cls-29" d="M249.94,169.92a5.8,5.8,0,0,1-.46-8.19h0a5.31,5.31,0,0,1,4.49-1.51,5.48,5.48,0,0,0-5.46,1.32,5.81,5.81,0,0,0,.44,8.2h0a6.38,6.38,0,0,0,3.75,1.74A6.41,6.41,0,0,1,249.94,169.92Z" transform="translate(0 -1.54)"/><path class="cls-30" d="M254.66,155.92a5.46,5.46,0,1,1,7.88-.53,5.56,5.56,0,0,1-7.84.56Z" transform="translate(0 -1.54)"/><path class="cls-31" d="M255.75,156a5.57,5.57,0,0,1-.87-7.83h0a5.38,5.38,0,0,1,3.95-1.88,5.42,5.42,0,0,0-5,1.82,5.57,5.57,0,0,0,.85,7.82h0a5.81,5.81,0,0,0,3.93,1.35A6,6,0,0,1,255.75,156Z" transform="translate(0 -1.54)"/><path class="cls-32" d="M267.54,148.1a5.59,5.59,0,1,1,8.07-.54,5.71,5.71,0,0,1-8.06.55Z" transform="translate(0 -1.54)"/><path class="cls-33" d="M268.52,148.16a5.7,5.7,0,0,1-.89-8h0a5.47,5.47,0,0,1,4.16-1.93,5.56,5.56,0,0,0-5.14,1.86,5.71,5.71,0,0,0,.89,8,6,6,0,0,0,3.88,1.39A6,6,0,0,1,268.52,148.16Z" transform="translate(0 -1.54)"/><path class="cls-34" d="M310.75,174.26s5-13,14.75-12.56,14.87-3,14.87-3-8.32,25.52-23.17,24.84Z" transform="translate(0 -1.54)"/><path class="cls-35" d="M311.19,175.48l5.18,7.49s-28.09,31.09-56,39.36C260.42,222.35,265,199.42,311.19,175.48Z" transform="translate(0 -1.54)"/><path class="cls-36" d="M303.31,195.7A179.32,179.32,0,0,0,316.37,183l-5.18-7.51c-5.33,2.8-10.06,5.53-14.33,8.17C296.12,194.66,303.31,195.7,303.31,195.7Z" transform="translate(0 -1.54)"/><path class="cls-26" d="M331.18,175.87c6-7.3,9.19-17.13,9.19-17.13s-5.17,3.38-14.87,3c-5.3-.24-9.19,3.52-11.64,7h0s5.13-5.13,11.74,2.36A24.49,24.49,0,0,0,331.18,175.87Z" transform="translate(0 -1.54)"/><path class="cls-37" d="M260.42,222.35l.18-.06c5.76-9.55,19.64-26.49,51.81-45.07l-1.2-1.72C265,199.42,260.42,222.35,260.42,222.35Z" transform="translate(0 -1.54)"/><path class="cls-24" d="M340.42,158.74s-5.17,3.38-14.87,3a10.65,10.65,0,0,0-5.66,1.37c5-1.89,14.05,1.84,14.05,1.84-4.85,14.65-18,15.44-18,15.44l-.6.48,1.9,2.75C332.05,184.26,340.42,158.74,340.42,158.74Z" transform="translate(0 -1.54)"/><path class="cls-24" d="M317.2,164.92a3.12,3.12,0,0,0,.68-.58Z" transform="translate(0 -1.54)"/><path class="cls-38" d="M36.18,223,46,243.52a7.76,7.76,0,0,0-2.25.71c-3.24,1.6-4.77,5.13-3.41,7.87s5.08,3.67,8.32,2.06a5.29,5.29,0,0,0,3-6.57h.13L41.62,226.8l15-9.17L64.05,232a7.53,7.53,0,0,0-2.23.7c-3.24,1.6-4.77,5.13-3.41,7.87s5.09,3.66,8.33,2.06,3.58-4.54,2.22-7.28L57,211Z" transform="translate(0 -1.54)"/><path class="cls-26" d="M241.87,266.2a12.09,12.09,0,0,0,7.34,4.28c5,1,10,7,6.9,15s-7.21,14.21-15.39,17.2-11.78-1.06-14.05-2.79-7.73-2.23-9-5.55-5.13-16.75,1.15-25.45S237.53,261,241.87,266.2Z" transform="translate(0 -1.54)"/><path class="cls-39" d="M217.71,294.33c1.23,3.32,6.68,3.8,9,5.55s5.88,5.77,14,2.79,12.28-9.2,15.39-17.2-1.88-14-6.9-15a12.09,12.09,0,0,1-7.34-4.28c-4.34-5.22-16.73-6-23,2.68S216.49,291,217.71,294.33Z" transform="translate(0 -1.54)"/><path class="cls-35" d="M243,274.61l.23.11Z" transform="translate(0 -1.54)"/><path class="cls-35" d="M243.19,274.72a.66.66,0,0,0,.19.09Z" transform="translate(0 -1.54)"/><path class="cls-35" d="M217.71,294.33c-1.22-3.32-5.13-16.75,1.15-25.45a16.13,16.13,0,0,1,14.74-6.5c4.73.57,7.14,2.41,7.49,3.45,1.33,3.93-.07,7.67,1.87,8.78a14.45,14.45,0,0,1-6.09-4.79c-2.73-3.92-11.74-3.31-14.82,5.47s-3.37,19.77,2.16,20.4,5.24.16,8.12,4.26,15.46-.57,20.66-7.86a22.82,22.82,0,0,1-12.27,10.58c-8.17,3-11.78-1.06-14.05-2.79S218.94,297.65,217.71,294.33Z" transform="translate(0 -1.54)"/><path class="cls-39" d="M248,277.78c2.12.32,5.44.58,5.95,3.43.48,2.69-1.52,8.4-5.24,11.22-4.11,3.12-6.14,2.56-4.26-1.45s3.42-5.84,3.15-8.11C247.21,279.16,244.55,277.25,248,277.78Z" transform="translate(0 -1.54)"/><path class="cls-40" d="M241.84,265.68a5.18,5.18,0,0,0,4.34-5.41c-.19-4.68-11.42-8.61-12.56-12,0,0-.82,8.86,2.87,13.29C240.49,266.36,241.84,265.68,241.84,265.68Z" transform="translate(0 -1.54)"/><path class="cls-40" d="M246.18,260.27a5.18,5.18,0,0,1-4.34,5.41,11.36,11.36,0,0,0-2.19-7.7c-2.75-3.8-6.37-7-6-9.71C234.76,251.66,246,255.59,246.18,260.27Z" transform="translate(0 -1.54)"/><path class="cls-41" d="M243,269.78a10.48,10.48,0,0,1-.69-3.22c-.07-1.69-.5-6.58-2.68-8.51,0,0,2.47,2.7,2.15,8.12-.21,3.58.55,4,.55,4Z" transform="translate(0 -1.54)"/><path class="cls-41" d="M241.11,273.48a3.41,3.41,0,0,1-1.15-.71s3.71-6.6,9.63-9.47c0,0,.76,0,1.29,1.06s-.3,1.25-.3,1.25S244.85,266.7,241.11,273.48Z" transform="translate(0 -1.54)"/><path class="cls-42" d="M249.59,263.3s.76,0,1.29,1.06-.3,1.25-.3,1.25a4.91,4.91,0,0,0-.75.21h0s-.71-.06-.91-.53-.25-.66-2.56,1.34a32.64,32.64,0,0,0-5.71,6.59h0a3.53,3.53,0,0,1-.66-.49S243.67,266.17,249.59,263.3Z" transform="translate(0 -1.54)"/><path class="cls-43" d="M249.71,263.27s.42-.15,1.06.86.23,1.48-.37,1.53S248.71,263.33,249.71,263.27Z" transform="translate(0 -1.54)"/><path class="cls-44" d="M171.25,105.42v0c0-.6.1-1.2.1-1.81a28.16,28.16,0,1,0-39.5,25.75h.05a28,28,0,0,0,35.79-12,.61.61,0,0,0,.12-.16h0a28.08,28.08,0,0,0,3.45-11.79Z" transform="translate(0 -1.54)"/><path class="cls-45" d="M160.65,122c-.78-.58-1.7-1.31-2.39-1.94,1.58-3.57,2.56-10.86,2.85-13.28a52,52,0,0,0,5.86-6.38c1.62,1.23,4,3.39,4.32,5.23a27.81,27.81,0,0,1-3.57,11.81C166.91,118.64,163.25,120.71,160.65,122Zm-16.29,6.94c-2.58.26-9.87.91-12.62.37a28.33,28.33,0,0,1-7.23-4.67,84.71,84.71,0,0,1,1.23-8.68c1.83,0,6.35.16,8.83.14,1.47,1.53,6.94,7,10.84,9C145.11,126.18,144.69,127.76,144.36,128.92ZM131.36,85c1.73-.85,7.23-3.42,10.66-3.82,2.29.82,8.2,5.4,10.94,7.63-.28,2.31-1.26,7.61-1.65,9.68-3.42,1.92-12.09,4.38-14.08,4.93a85.77,85.77,0,0,1-7.5-5.49c0-1.14,0-4.81,1.69-12.93Zm30.28,3.57c-1.9-.28-5.42-.49-7.32-.6-1.2-1-7.93-6.46-11.3-8l.62-4.59A28.12,28.12,0,0,1,162.39,83a18.24,18.24,0,0,1-.72,5.59Zm-15.82,35c-3.37-1.74-8.14-6.44-9.89-8.21.32-2.06,1.34-8.23,2.33-10.66,2.78-.78,10.25-3,13.68-4.84,2,1.5,6,5.38,7.62,6.9-.32,2.54-1.28,9.59-2.72,12.74a49.07,49.07,0,0,1-11,4.07Zm25.5-21a21.43,21.43,0,0,0-4.29-4,85.39,85.39,0,0,0-4-9.21,31.14,31.14,0,0,0,.9-4.87,28.07,28.07,0,0,1,7.42,18ZM125.69,81.48l4.24,3.13a67.71,67.71,0,0,0-1.69,12.76c-1.42,1.3-5.12,4.69-6.82,6.35a13.88,13.88,0,0,1-5.59-4.29c.07-1,.22-2.64.44-4.28A28.4,28.4,0,0,1,125.69,81.48ZM115,103.56c0-.66.06-1.3.1-1.94.06-.17.11-.33.17-.47a16.62,16.62,0,0,0,5.6,4c.58,1.82,2.36,7.25,3.53,9.79-.34,1.81-1,5.76-1.29,8.39A28.12,28.12,0,0,1,115,103.55ZM136.73,131c3-.1,6.21-.39,7.77-.54,1.11.09,3.56.29,5.64.42a27.05,27.05,0,0,1-13.41.11Zm20.63-3.11a17.85,17.85,0,0,0,4.53-4.84c.87-.43,2-1,3.11-1.68a28.4,28.4,0,0,1-7.64,6.51Z" transform="translate(0 -1.54)"/><path class="cls-46" d="M131.85,129.35a28.06,28.06,0,0,0,35.82-12,1,1,0,0,0,.13-.16h0a27.91,27.91,0,0,0,3.46-11.79h0c0-.61.09-1.21.09-1.82A28.19,28.19,0,0,0,137.87,75.9c.06,0,22.52,3,20.65,32.23S131.85,129.35,131.85,129.35Z" transform="translate(0 -1.54)"/><path class="cls-47" d="M259.28,103.87" transform="translate(0 -1.54)"/><path class="cls-25" d="M122.81,235.48a18.15,18.15,0,1,0,23.94,9.27A18.14,18.14,0,0,0,122.81,235.48Z" transform="translate(0 -1.54)"/><path class="cls-47" d="M151,288.69a3.42,3.42,0,0,1-1.73,4.47l-1.63.72a3.42,3.42,0,0,1-4.48-1.73L136.93,278c-.45-1,1.7-2.78,2.35-3.06l.34-.15c1.71-.76,4.66-1.38,5.15-.25Z" transform="translate(0 -1.54)"/><path class="cls-44" d="M144.81,274.66c.49,1.09-.88,2.74-3,3.7s-4.31.85-4.78-.24.88-2.73,3.05-3.69S144.34,273.58,144.81,274.66Z" transform="translate(0 -1.54)"/><path class="cls-48" d="M121.42,232.35a21.56,21.56,0,0,0,15.28,40.26l1.43,3.25a2.12,2.12,0,0,0,2.8,1.08h0l.31-.14a2.12,2.12,0,0,0,1.09-2.79l-1.44-3.25a21.56,21.56,0,0,0-19.47-38.41ZM137,267.59a17,17,0,1,1,8.62-22.44l0,.07A17,17,0,0,1,137,267.59Z" transform="translate(0 -1.54)"/><path class="cls-49" d="M139.59,271.48l.89-.46,1.52,3.42a1.54,1.54,0,0,1-.45,1.47Z" transform="translate(0 -1.54)"/><g class="cls-50"><path class="cls-51" d="M142,245.42l-.19.18a2,2,0,0,1-2.79-.27,12,12,0,0,0-12.62-3.85,2,2,0,0,1-1.11-3.79,15.92,15.92,0,0,1,16.75,5.16A2,2,0,0,1,142,245.42Z" transform="translate(0 -1.54)"/></g><path class="cls-52" d="M122.81,235.48a18.15,18.15,0,1,0,23.94,9.27A18.14,18.14,0,0,0,122.81,235.48ZM137,267.6a17,17,0,1,1,8.62-22.44l0,.07A17,17,0,0,1,137,267.59Z" transform="translate(0 -1.54)"/><path class="cls-53" d="M305.69,129.48s-31.1-24.3-31.33-24.41,3-1.54,4-1.16,24.94,15,26.74,16.42a3.07,3.07,0,0,1,1,3.75l1.52,3.22A4.81,4.81,0,0,1,305.69,129.48Z" transform="translate(0 -1.54)"/><path class="cls-54" d="M305.69,129.48s-31.1-24.3-31.33-24.41.36-.3,1-.56h0s24.61,19.41,27,21.16,2.93,1.79,3.65.77a6.22,6.22,0,0,1,.78-.92l.84,1.78A4.83,4.83,0,0,1,305.69,129.48Z" transform="translate(0 -1.54)"/><path class="cls-25" d="M278.79,104.48l22.55,13.75s-22.48-13.33-23.46-13.71Z" transform="translate(0 -1.54)"/><path class="cls-55" d="M324.79,143.21a8.66,8.66,0,0,0-10.37-12h0a6.25,6.25,0,0,1-3.36-1.45c-1.1-1-3.24-3.54-4.21-2.85s-2.83,2.21-1.72,3.52,3.9,3.09,3.41,7h0a8.66,8.66,0,0,0,16.25,5.72Zm-2.32-1.09a6.1,6.1,0,1,1-2.93-8.11h0a6.08,6.08,0,0,1,2.94,8.08Z" transform="translate(0 -1.54)"/><path class="cls-56" d="M323.52,139.26a6.57,6.57,0,1,0-6.21,6.91h0A6.57,6.57,0,0,0,323.52,139.26Zm-.48-.07a6.09,6.09,0,1,1-6.41-5.75h0a6.09,6.09,0,0,1,6.41,5.75Z" transform="translate(0 -1.54)"/><path class="cls-55" d="M325.58,138.76h0c-.43-5.32-7.27-7.79-10.14-7s-4.38-.31-6.48-2.17-3.5-1.47-3.5-1.47h0a8.44,8.44,0,0,1,1.39-1.21c1-.69,3.11,1.81,4.21,2.85a6.25,6.25,0,0,0,3.36,1.45h0a8.67,8.67,0,0,1,11.16,7.52Z" transform="translate(0 -1.54)"/><path class="cls-10" d="M305.3,129.48a3.44,3.44,0,0,0,1.19,1.78c.95.74,3,3,3,4.72a3.9,3.9,0,0,0-1.13-3.41Z" transform="translate(0 -1.54)"/><path class="cls-51" d="M310.09,120.14s-38.55-8.43-38.79-8.55.71,3.26,1.69,3.85,27.43,9.65,29.7,10.12a3.07,3.07,0,0,0,3.5-1.67l3.45-.88A4.83,4.83,0,0,0,310.09,120.14Z" transform="translate(0 -1.54)"/><path class="cls-57" d="M302.61,122.39a2.17,2.17,0,1,1-1-2.9h0A2.17,2.17,0,0,1,302.61,122.39Z" transform="translate(0 -1.54)"/><path class="cls-44" d="M301.63,119.48a2.22,2.22,0,0,0-1.48-.16,2.38,2.38,0,0,1,.45.15,1.82,1.82,0,0,1-1.4,3.36l-.22-.11h-.07a2.32,2.32,0,0,0,.79.67,2.16,2.16,0,1,0,1.93-3.87h0Z" transform="translate(0 -1.54)"/><path class="cls-58" d="M310.09,120.14s-38.55-8.43-38.79-8.55,0,.46.21,1.14h0S302.17,119.29,305,120s3.25,1.12,2.93,2.33a5.23,5.23,0,0,0-.22,1.18l1.91-.49A4.83,4.83,0,0,0,310.09,120.14Z" transform="translate(0 -1.54)"/><path class="cls-25" d="M273.67,115.39l25,8.6s-24.62-8.82-25.52-9.33Z" transform="translate(0 -1.54)"/><path class="cls-55" d="M328.67,114.6a8.65,8.65,0,0,0-10.62,2.65h0c-2.71,2.9-5.87,1.87-7.59,1.85s-1.69,2.38-1.6,3.58,3.37,1.24,4.88,1.42a6.33,6.33,0,0,1,3.26,1.66h0a8.66,8.66,0,1,0,11.67-11.16ZM322.42,128a6.1,6.1,0,1,1,8.11-2.94v0A6.1,6.1,0,0,1,322.42,128Z" transform="translate(0 -1.54)"/><path class="cls-59" d="M330.34,118.48a6.57,6.57,0,1,0-1.37,9.19,6.57,6.57,0,0,0,1.37-9.19Zm-10.24,7.59a6.09,6.09,0,1,1,8.52,1.27,6.1,6.1,0,0,1-8.52-1.27h0Z" transform="translate(0 -1.54)"/><path class="cls-55" d="M329.9,129.56h0c-4.37,3.06-10.64-.63-11.84-3.37s-3-3.16-5.81-3.59-3.36-1.76-3.36-1.76h0a8.09,8.09,0,0,0,0,1.84c.09,1.19,3.37,1.24,4.88,1.42a6.33,6.33,0,0,1,3.26,1.66h0a8.66,8.66,0,0,0,11.31,4.67,8.76,8.76,0,0,0,1.59-.87Z" transform="translate(0 -1.54)"/><path class="cls-10" d="M309.81,119.88a3.46,3.46,0,0,1,2.13-.23c1.17.26,4.21.4,5.52-.71a3.9,3.9,0,0,1-3.35,1.3Z" transform="translate(0 -1.54)"/><path class="cls-60" d="M38.82,154.48,39.45,186s-3.73.07-8.2-5.4L28.47,146.3S34,152.32,38.82,154.48Z" transform="translate(0 -1.54)"/><polygon class="cls-61" points="39.45 184.39 38.82 152.91 75.7 122.29 66.67 160.25 39.45 184.39"/><path class="cls-62" d="M38.82,154.48a28.78,28.78,0,0,1-10.35-8.18l37.4-29.68s.82-.59.76.41a15.51,15.51,0,0,1-.43,2.45L31.1,147.17a31.33,31.33,0,0,0,7.63,5.76L75.2,123.09s.9-.4.5.77Z" transform="translate(0 -1.54)"/><path class="cls-25" d="M65.58,118.15s5.39,5.46,8.13,6.13L38.71,153s-6.29-3.48-8.67-6.67Z" transform="translate(0 -1.54)"/><path class="cls-51" d="M65.79,119.34,37.42,143.05l28.76-23.4.63.57L57.57,128l9.53-7.44s3.52,3.54,4.68,4l-33.1,28.36,35-28.68c-2.74-.67-8.13-6.13-8.13-6.13L30,146.29,65.42,119Z" transform="translate(0 -1.54)"/><path class="cls-51" d="M38.61,151.81s29.33-24.14,31.58-25.93C70.19,125.88,47.22,143.84,38.61,151.81Z" transform="translate(0 -1.54)"/></g><path class="cls-63" d="M193,29.62a7.21,7.21,0,0,0-3,2.89.54.54,0,0,1-.05.11c-1.8,4.56-3.69,19.54-.29,32.86s8.07,23.62,15.54,18.38l-.86-8.73s-4.45,3.73-7.58-6-3.89-26.26-.77-35.39a5.42,5.42,0,0,1,1.8-2.93C196.51,29.41,194.86,28.66,193,29.62Z" transform="translate(0 -1.54)"/><path class="cls-64" d="M193,29.62a7.21,7.21,0,0,0-3,2.89.54.54,0,0,1-.05.11c-1.8,4.56-3.69,19.54-.29,32.86s8.07,23.62,15.54,18.38l-.86-8.73s-4.45,3.73-7.58-6-3.89-26.26-.77-35.39a5.42,5.42,0,0,1,1.8-2.93C196.51,29.41,194.86,28.66,193,29.62Z" transform="translate(0 -1.54)"/><path class="cls-64" d="M196.78,69.08a.75.75,0,0,1-.05-.16,7.35,7.35,0,0,1-2.44,1,4,4,0,0,1-3.65-.93c3.31,11.51,7.79,19.61,14.58,14.84l-.86-8.73S199.91,78.86,196.78,69.08Z" transform="translate(0 -1.54)"/><path class="cls-64" d="M193,29.62a7.21,7.21,0,0,0-3,2.89.54.54,0,0,1-.05.11,38.85,38.85,0,0,0-1.82,9.32c1.42-3.28,3.64-5.75,7.08-5.53.23-1,.49-1.88.78-2.72a5.42,5.42,0,0,1,1.8-2.93C196.51,29.41,194.86,28.66,193,29.62Z" transform="translate(0 -1.54)"/><path class="cls-65" d="M201.2,26.11c-3.48.54-9.32,1.93-11.18,6.4a7.21,7.21,0,0,1,3-2.89c1.87-1,3.52-.21,4.82,1.14a13,13,0,0,1,2.66,4.58,11.32,11.32,0,0,0,4.13-2.42l.34-.32,2-1.26S204.71,25.56,201.2,26.11Z" transform="translate(0 -1.54)"/><path class="cls-65" d="M225.46,21.6c-3-2.86-7.59-2.24-10.69-.06a3.32,3.32,0,0,0-.58.54c1.25-.84,2.86-.62,4.25.9A28,28,0,0,1,222,28.5l7.62-1.61A19.35,19.35,0,0,0,225.46,21.6Z" transform="translate(0 -1.54)"/><path class="cls-63" d="M214.19,22.08c-2.27,2.55-.74,8.23-.74,8.23L222,28.5A28,28,0,0,0,218.44,23C217.05,21.46,215.44,21.24,214.19,22.08Z" transform="translate(0 -1.54)"/><path class="cls-66" d="M214.19,22.08c-2.27,2.55-.74,8.23-.74,8.23L222,28.5A28,28,0,0,0,218.44,23C217.05,21.46,215.44,21.24,214.19,22.08Z" transform="translate(0 -1.54)"/><path class="cls-67" d="M196.79,33.54c-2.07.82-3.93,3.65-2.91,11.67s11,43.69,11.19,44.36.77.13,1.17-.37a3,3,0,0,1,3.1-.54c1.4.52,1.49.23,2.13-.68s2.59-1.45,4.28-.72,1.44-.4,2.57-1.22,2.77-.55,3.89-.51a7.49,7.49,0,0,0,3-1c.49-.21-10.81-29.5-10.81-29.5-1.59-4.24-6.29-15.12-8.85-18.46C202.47,32.57,200.24,32.18,196.79,33.54Z" transform="translate(0 -1.54)"/><path class="cls-68" d="M205.56,36.61c-3.09-4-5.32-4.43-8.77-3.07-2,.8-3.87,3.57-2.95,11.33a9.67,9.67,0,0,0,3.44-.53l3-.77c.81-.21,1.57-.43,2.28-.67a29.91,29.91,0,0,0,5.39-2.33A29.77,29.77,0,0,0,205.56,36.61Z" transform="translate(0 -1.54)"/><g class="cls-69"><path class="cls-70" d="M195.25,36.74a4.2,4.2,0,0,1,4.18.92,14.59,14.59,0,0,1,3.66,5.06,29.41,29.41,0,0,0,4.85-2.15,29.77,29.77,0,0,0-2.38-4c-3.09-4-5.32-4.43-8.77-3.07-1.23.49-2.39,1.7-2.91,4.29A2.77,2.77,0,0,1,195.25,36.74Z" transform="translate(0 -1.54)"/></g><path class="cls-70" d="M209.79,86.13c-.72-2.53-10.83-36.2-12.51-41.79l-.92.22c2.45,8.08,11.57,38.17,12.27,40.55.28,1,.59,1.9.87,2.73-.19.08-.47,0-1-.31a1.58,1.58,0,0,0-2.21.27c-.26.45-.63.93-.83.26S196.29,56.34,194,45.82c1.38,9,10.9,43.1,11.1,43.75s.77.13,1.17-.37a3,3,0,0,1,3.1-.54c.69.25,1.06.31,1.34.2C210.38,88,210.07,87.1,209.79,86.13Z" transform="translate(0 -1.54)"/><path class="cls-71" d="M214.54,81.57c-1.89-5.81-10.28-33.1-12-38.67-.27.09-.54.18-.81.25,2.25,7.31,9.85,31.92,11.61,37.41.9,2.81,1.62,4.68,2.14,5.9a1.37,1.37,0,0,1-.81-.28c-1.36-.83-2.82-.44-3.25.4-.22.42-.34.7-.56.8-.28-.83-.58-1.76-.86-2.72-.69-2.38-9.83-32.56-12.22-40.45l-.51.13c1.68,5.59,11.79,39.26,12.51,41.79.28,1,.59,1.91.89,2.73.28-.12.47-.42.79-.88.64-.91,2.59-1.45,4.28-.72a1.91,1.91,0,0,0,1,.21A52.8,52.8,0,0,1,214.54,81.57Z" transform="translate(0 -1.54)"/><path class="cls-70" d="M214.41,55.07a154,154,0,0,0-6.47-14.5l-.42.23c2.07,4.57,2.4,9.15,3.42,12,0,0,9.08,28.14,9.22,28.53.5,1.44,1.34,3.18.45,3.07s-1.77-.81-2.6.16c-.51.62-.62,1.26-1.11,1.31-.52-1.22-1.24-3.1-2.15-5.93C213,74.48,205.6,50.46,203.2,42.68c-.22.08-.43.16-.65.22,1.71,5.57,10.1,32.86,12,38.67a52.8,52.8,0,0,0,2.24,5.9c.63-.09.73-.84,1.54-1.43,1.13-.82,2.77-.55,3.89-.51a7.49,7.49,0,0,0,3-1C225.71,84.36,214.41,55.07,214.41,55.07Z" transform="translate(0 -1.54)"/><path class="cls-67" d="M240.93,43.48s8.24,21,10.08,25.77,2.93,4.42-2,6.71-20.85,7.52-23.34,8.4-2.81,1.62-4.66-3.45-9.21-27.62-9.21-27.62Z" transform="translate(0 -1.54)"/><path class="cls-72" d="M245.82,60.35a15,15,0,0,0-2.24,1c-1.15.54-2.36,1.1-3.34,0a14.17,14.17,0,0,1-2-3.89c-.94-2-1.57-4.14-2.44-6.31-3.48.54-12.28,3.68-13.4,4a6.33,6.33,0,0,0-3,1.3,47.17,47.17,0,0,1,2,5c.55,1.38,1.5,2.57,2,4,.38,1.08.91,1.56-.18,2.13-.62.32-3.55,1.23-3.52,1.39.16.9,1.82,5.18,2.3,6.62a5.56,5.56,0,0,0,3.42,3.72,9.07,9.07,0,0,0,5.8.21c1.94-.47,3.86-1,5.75-1.71,2.54-.85,5.15-1.64,7.64-2.61A5.39,5.39,0,0,0,248,71.73c.94-3-.06-6.47-1.23-9.3C246.65,62.23,245.87,60.34,245.82,60.35Z" transform="translate(0 -1.54)"/><path class="cls-65" d="M251,69.14a17.62,17.62,0,0,0-1.4,2.86,16.79,16.79,0,0,0-.86,4.11l.34-.15c4.89-2.29,3.8-2,2-6.71C251,69.21,251,69.18,251,69.14Z" transform="translate(0 -1.54)"/><path class="cls-65" d="M220.73,80c.12.35.22.65.32.91,1.85,5.07,2.17,4.33,4.66,3.45l1.58-.55A11.17,11.17,0,0,0,220.73,80Z" transform="translate(0 -1.54)"/><path class="cls-70" d="M239.93,41.25c-1.62-3.12-3.54-5.47-5.17-8.6-3.21.87-6.45,1.69-9.66,2.54-4.78,1.25-9.41,3-14.07,4.6-1.87.66-3.57,1.14-5.39,1.92-.78.34-1.5.65-2.55,1,.3.64.57,1.29.81,2,2.51,5.15,3.83,10.75,5.36,13.77,1.64,3.2.69,2.61,5.57.68s20.28-7.05,24.07-8c2.18-.54,3.62-1,4.4-1.62C242.12,46.75,241.21,43.72,239.93,41.25Z" transform="translate(0 -1.54)"/><path class="cls-72" d="M197.69,33c4-2.19,22.09-8.62,31.3-9,1.82-.08,6,1.94,9.32,8.69s5,10.29,5.64,11.84-1.12,2.32-4.77,3.23-18.43,5.82-23.13,7.67-3.78,2.44-5.35-.66-2.91-9-5.63-14.18-5.84-8.55-9.59-6A9.84,9.84,0,0,1,197.69,33Z" transform="translate(0 -1.54)"/><path class="cls-73" d="M205.21,40.85c1.41,1,3.35.84,5.18.29,1.19-.36,25.09-8.56,27.5-9.28-3.24-6.1-7.16-7.95-8.9-7.88-9.21.4-27.33,6.83-31.3,9a9.84,9.84,0,0,0-2.21,1.56c3.75-2.54,6.87.8,9.59,6C205.12,40.66,205.17,40.76,205.21,40.85Z" transform="translate(0 -1.54)"/><path class="cls-74" d="M202.31,36.25c2.19-1.1,30-9.39,31.67-9.7-2-1.93-3.92-2.61-5-2.57-9.21.4-27.33,6.83-31.3,9a9.84,9.84,0,0,0-2.21,1.56C198,32.84,200.27,33.82,202.31,36.25Z" transform="translate(0 -1.54)"/><path class="cls-65" d="M223.56,65.17a.45.45,0,0,1-.22.59l-3.63,1.34a.44.44,0,0,1-.54-.3,56.47,56.47,0,0,1-3.19-7A75.26,75.26,0,0,1,213.43,52a.44.44,0,0,1,.22-.59l3.62-1.34a.45.45,0,0,1,.55.31s.39,1.45,2.72,7.67S223.56,65.17,223.56,65.17Z" transform="translate(0 -1.54)"/><path class="cls-67" d="M217.7,52.81a1.48,1.48,0,0,1-.86,1.89,1.45,1.45,0,0,1-1.76-1.06,1.38,1.38,0,1,1,2.62-.83Z" transform="translate(0 -1.54)"/><path class="cls-72" d="M217.61,52.72a1.2,1.2,0,0,1-.68,1.55,1.18,1.18,0,0,1-1.44-.88,1.2,1.2,0,0,1,.68-1.54A1.19,1.19,0,0,1,217.61,52.72Z" transform="translate(0 -1.54)"/><path class="cls-75" d="M217.33,52.42a1,1,0,0,0-.83-.54,1,1,0,0,0-.9,1.31s0,0,0,0c.09-.5.32-.9.85-.87a1.21,1.21,0,0,1,.9,1.16s0,0,0,0A1.15,1.15,0,0,0,217.33,52.42Z" transform="translate(0 -1.54)"/><path class="cls-65" d="M245.43,58.26a.47.47,0,0,1-.23.6l-3.62,1.33a.43.43,0,0,1-.54-.3,56.47,56.47,0,0,1-3.19-7,75.58,75.58,0,0,1-2.55-7.81.44.44,0,0,1,.21-.59l3.63-1.34a.43.43,0,0,1,.54.3s.39,1.45,2.72,7.68S245.43,58.26,245.43,58.26Z" transform="translate(0 -1.54)"/><path class="cls-67" d="M239.57,45.9a1.39,1.39,0,1,1-2.63.83,1.39,1.39,0,1,1,2.63-.83Z" transform="translate(0 -1.54)"/><path class="cls-72" d="M239.48,45.82a1.13,1.13,0,1,1-1.44-.88A1.2,1.2,0,0,1,239.48,45.82Z" transform="translate(0 -1.54)"/><path class="cls-75" d="M239.2,45.51a1,1,0,0,0-.82-.54,1,1,0,0,0-.92,1.31s0,0,0,0c.09-.5.32-.9.85-.88a1.19,1.19,0,0,1,.89,1.17s0,0,0,0A1.13,1.13,0,0,0,239.2,45.51Z" transform="translate(0 -1.54)"/><path class="cls-76" d="M206.21,30.09s14.73-5.58,23.26-5.67c0,0,5.45-.79,12.94,17.72,0,0-6.29-14.07-12.13-16.58C225.31,23.78,206.21,30.09,206.21,30.09Z" transform="translate(0 -1.54)"/><path class="cls-77" d="M248,65.87l-1.38-3.77c.68,2.2,1.74,6.62,1.65,7.95-.15,2-1.76,3.29-3.45,4-3,1.27-6.28,2-9.34,3C232.7,78,230,79.63,227,79.2c-2.8-.4-4.31-2.78-5.37-5.14-.07-.15-1.26-3.18-1.21-3,2.18,7.23,2.85,9.1,5.44,10,3.23,1.18,7-.89,9.94-2,2.19-.8,4.24-1.57,6.48-2.24a17.87,17.87,0,0,0,5.09-2.16C250.35,72.72,249.14,68.55,248,65.87Z" transform="translate(0 -1.54)"/></g></g></svg>