<svg height="512pt" viewBox="-3 0 512 512" width="512pt" xmlns="http://www.w3.org/2000/svg"><path d="m260.183594 464.675781v-52.457031c0-4.144531-3.359375-7.503906-7.503906-7.503906-4.144532 0-7.5 3.359375-7.5 7.503906v52.457031c-9.714844 3.167969-16.757813 12.308594-16.757813 23.066407 0 13.375 10.882813 24.257812 24.257813 24.257812s24.257812-10.882812 24.257812-24.257812c0-10.757813-7.042969-19.898438-16.753906-23.066407zm-7.503906 32.320313c-5.101563 0-9.253907-4.152344-9.253907-9.253906 0-5.101563 4.152344-9.253907 9.253907-9.253907 5.101562 0 9.253906 4.152344 9.253906 9.253907 0 5.101562-4.152344 9.253906-9.253906 9.253906zm0 0" fill="#838383"/><path d="m471.546875 392.722656h-437.734375c-10.480469 0-18.976562-8.5-18.976562-18.980468v-343.527344h475.691406v343.527344c0 10.484374-8.5 18.980468-18.980469 18.980468zm0 0" fill="#e7e7e7"/><path d="m471.546875 392.722656h-8.929687v-350.621094h27.910156v331.640626c0 10.484374-8.5 18.980468-18.980469 18.980468zm0 0" fill="#cecece"/><path d="m500.28125 42.101562h-495.203125c-2.804687 0-5.078125-2.273437-5.078125-5.078124v-31.945313c0-2.804687 2.273438-5.078125 5.078125-5.078125h495.203125c2.808594 0 5.078125 2.273438 5.078125 5.078125v31.945313c0 2.804687-2.273437 5.078124-5.078125 5.078124zm0 0" fill="#00d3b4"/><path d="m500.28125 42.101562h-23.710938v-42.101562h23.710938c2.808594 0 5.078125 2.273438 5.078125 5.078125v31.945313c0 2.804687-2.273437 5.078124-5.078125 5.078124zm0 0" fill="#00b7a0"/><path d="m457.25 145.265625c-5.242188-14.347656-14.679688-26.671875-26.828125-35.492187-3.152344-2.289063-7.566406-1.535157-9.757813 1.683593l-30.824218 45.292969c-3.527344 5.1875 1.15625 12.003906 7.261718 10.566406l55.253907-12.996094c4.011719-.945312 6.308593-5.183593 4.894531-9.054687zm0 0" fill="#ff5757"/><path d="m452.355469 154.320312-7.074219 1.664063c-5.394531-15.578125-15.707031-28.851563-29.082031-37.972656l4.460937-6.554688c2.191406-3.21875 6.609375-3.972656 9.757813-1.683593 12.152343 8.820312 21.59375 21.144531 26.835937 35.492187 1.414063 3.871094-.886718 8.113281-4.898437 9.054687zm0 0" fill="#f72c2c"/><path d="m434.6875 190.460938c1.199219 6.546874 1.800781 13.304687 1.742188 20.214843-.46875 57.941407-47.8125 105.300781-105.753907 105.796875-59.65625.507813-108.117187-47.953125-107.609375-107.613281.488282-57.414063 47.03125-104.554687 104.4375-105.734375 17.894532-.367188 34.8125 3.675781 49.738282 11.109375 3.683593 1.832031 4.871093 6.519531 2.589843 9.941406l-46.105469 69.171875c-3.4375 5.152344 1.160157 11.867188 7.207032 10.53125l85.496094-18.875c3.800781-.839844 7.558593 1.628906 8.257812 5.457032zm0 0" fill="#ffcd6b"/><path d="m436.4375 209.792969c0 58.917969-47.769531 106.679687-106.6875 106.679687-2.710938 0-5.402344-.101562-8.0625-.300781 55.152344-4.125 98.617188-50.175781 98.617188-106.378906 0-7.859375-.84375-15.515625-2.460938-22.894531l8.589844-1.894532c3.792968-.839844 7.550781 1.617188 8.253906 5.4375 1.148438 6.273438 1.75 12.742188 1.75 19.351563zm0 0" fill="#ffc143"/><g fill="#838383"><path d="m176.605469 108.082031h-120.34375c-4.140625 0-7.5-3.359375-7.5-7.503906s3.359375-7.5 7.5-7.5h120.34375c4.144531 0 7.503906 3.355469 7.503906 7.5s-3.359375 7.503906-7.503906 7.503906zm0 0"/><path d="m149.054688 173.394531h-92.792969c-4.140625 0-7.5-3.359375-7.5-7.503906s3.359375-7.503906 7.5-7.503906h92.792969c4.140624 0 7.5 3.359375 7.5 7.503906s-3.359376 7.503906-7.5 7.503906zm0 0"/><path d="m127.097656 140.738281h-70.835937c-4.140625 0-7.5-3.359375-7.5-7.503906s3.359375-7.503906 7.5-7.503906h70.835937c4.144532 0 7.503906 3.359375 7.503906 7.503906s-3.359374 7.503906-7.503906 7.503906zm0 0"/><path d="m176.605469 230.003906h-120.34375c-4.140625 0-7.5-3.359375-7.5-7.503906s3.359375-7.503906 7.5-7.503906h120.34375c4.144531 0 7.503906 3.359375 7.503906 7.503906s-3.359375 7.503906-7.503906 7.503906zm0 0"/><path d="m149.054688 295.3125h-92.792969c-4.140625 0-7.5-3.359375-7.5-7.503906 0-4.140625 3.359375-7.5 7.5-7.5h92.792969c4.140624 0 7.5 3.359375 7.5 7.5 0 4.144531-3.359376 7.503906-7.5 7.503906zm0 0"/><path d="m127.097656 262.65625h-70.835937c-4.140625 0-7.5-3.359375-7.5-7.5 0-4.144531 3.359375-7.503906 7.5-7.503906h70.835937c4.144532 0 7.503906 3.359375 7.503906 7.503906 0 4.140625-3.359374 7.5-7.503906 7.5zm0 0"/></g><path d="m422.039062 412.21875h-338.71875c-2.804687 0-5.078124-2.273438-5.078124-5.078125v-28.835937c0-2.804688 2.273437-5.078126 5.078124-5.078126h338.71875c2.808594 0 5.078126 2.273438 5.078126 5.078126v28.835937c0 2.804687-2.273438 5.078125-5.078126 5.078125zm0 0" fill="#00d3b4"/><path d="m422.039062 412.21875h-23.332031v-38.992188h23.332031c2.808594 0 5.078126 2.273438 5.078126 5.078126v28.835937c0 2.804687-2.273438 5.078125-5.078126 5.078125zm0 0" fill="#00b7a0"/></svg>