<?xml version="1.0"?>
<svg xmlns="http://www.w3.org/2000/svg" height="512px" viewBox="0 1 511 511.99975" width="512px" class=""><g><g fill-rule="evenodd"><path d="m497.476562 0c-14.667968 0-29.332031 0-44 0-131.324218 0-262.652343 0-393.980468 0-14.664063 0-29.332032 0-43.996094 0-8.285156 0-15 6.714844-15 15 0 8.28125 6.714844 15 15 15h28.996094v312.984375c0 8.28125 6.71875 15 15 15h393.980468c8.285157 0 15-6.71875 15-15v-312.984375h29c8.28125 0 15-6.71875 15-15 0-8.285156-6.71875-15-15-15zm-90.390624 112.601562-139.992188 139.992188c-5.859375 5.855469-15.355469 5.855469-21.214844 0l-56.390625-56.390625-70.390625 70.390625c-2.929687 2.929688-6.765625 4.394531-10.605468 4.394531-3.839844 0-7.675782-1.464843-10.605469-4.394531-5.855469-5.859375-5.855469-15.355469 0-21.210938l80.996093-80.996093c5.855469-5.859375 15.355469-5.859375 21.210938 0l56.394531 56.386719 129.386719-129.382813c5.855469-5.859375 15.351562-5.859375 21.210938 0 5.855468 5.855469 5.855468 15.351563 0 21.210937zm0 0" data-original="#000000" class="active-path" data-old_color="#ffffff" fill="#ffffff"/><path d="m241.488281 496.976562c0 8.28125 6.714844 15 15 15 8.28125 0 14.996094-6.71875 14.996094-15v-109.058593h-29.996094zm0 0" data-original="#000000" class="active-path" data-old_color="#ffffff" fill="#ffffff"/><path d="m328.078125 387.917969h-42.417969l119.625 119.628906c5.855469 5.855469 15.351563 5.855469 21.210938 0 5.855468-5.859375 5.855468-15.355469 0-21.210937zm0 0" data-original="#000000" class="active-path" data-old_color="#ffffff" fill="#ffffff"/><path d="m86.414062 486.398438c-5.855468 5.855468-5.855468 15.351562 0 21.207031 5.859376 5.859375 15.355469 5.859375 21.210938 0l119.691406-119.6875h-42.421875zm0 0" data-original="#000000" class="active-path" data-old_color="#ffffff" fill="#ffffff"/></g></g> </svg>
