<?xml version="1.0" encoding="utf-8"?>
<!-- Generator: Adobe Illustrator 23.0.3, SVG Export Plug-In . SVG Version: 6.00 Build 0)  -->
<svg version="1.1" id="BACKGROUND2" xmlns="http://www.w3.org/2000/svg" xmlns:xlink="http://www.w3.org/1999/xlink" x="0px"
	 y="0px" viewBox="0 0 750 260.71" style="enable-background:new 0 0 750 260.71;" xml:space="preserve">
<style type="text/css">
	.st0{fill:url(#SVGID_1_);}
	.st1{opacity:0.24;}
	.st2{clip-path:url(#SVGID_3_);fill:#FFFFFF;}
</style>
<radialGradient id="SVGID_1_" cx="341.3655" cy="10.7059" r="314" gradientTransform="matrix(1.5 0 0 0.5211 -137.0482 124.8628)" gradientUnits="userSpaceOnUse">
	<stop  offset="0" style="stop-color:#39D0CA"/>
	<stop  offset="0.2233" style="stop-color:#38C2C8"/>
	<stop  offset="0.6465" style="stop-color:#359CC1"/>
	<stop  offset="1" style="stop-color:#3278BB"/>
</radialGradient>
<rect y="0.18" class="st0" width="750" height="260.53"/>
<g class="st1">
	<defs>
		<path id="SVGID_2_" class="st1" d="M737.51-44.7c-23.06,0-41.75,18.69-41.75,41.75c0,1.41,0.07,2.79,0.21,4.16
			c-6.37-2.68-13.38-4.16-20.72-4.16c-23.33,0-43.16,14.94-50.48,35.77c-2.33-0.53-4.76-0.82-7.25-0.82
			c-12.11,0-22.67,6.61-28.29,16.42c-8.79-11.58-22.69-19.06-38.35-19.06c-9.15,0-17.7,2.55-24.98,6.99
			c-7.66-10.23-19.88-16.85-33.64-16.85c-1.02,0-2.03,0.05-3.03,0.12c0.03-0.61,0.05-1.23,0.05-1.85c0-18.1-14.67-32.78-32.77-32.78
			c-11.27,0-21.2,5.69-27.1,14.34c-3.33-7.87-10.83-13.52-19.72-14.25c1.54-2.95,2.43-6.29,2.43-9.85
			c0-11.74-9.51-21.25-21.25-21.25c-2.96,0-5.76,0.63-8.31,1.72l-4.13-74.76l-6.83-0.02l-4,74.83C365-45.36,362.15-46,359.14-46
			c-11.74,0-21.25,9.51-21.25,21.25c0,3.56,0.88,6.9,2.43,9.85c-8.89,0.72-16.39,6.38-19.72,14.25C314.7-9.32,304.76-15,293.49-15
			c-18.1,0-32.77,14.67-32.77,32.78c0,0.62,0.02,1.23,0.05,1.85c-1-0.07-2.01-0.12-3.03-0.12c-13.76,0-25.98,6.62-33.64,16.85
			c-7.28-4.43-15.83-6.99-24.98-6.99c-14.08,0-26.74,6.05-35.54,15.69C157.64,37.12,148.17,32,137.5,32
			c-4.16,0-8.13,0.79-11.79,2.21C118.8,12.65,98.61-2.95,74.76-2.95c-7.35,0-14.35,1.48-20.72,4.16c0.14-1.37,0.21-2.76,0.21-4.16
			c0-23.06-18.69-41.75-41.75-41.75c-4.35,0-8.55,0.67-12.49,1.9V7.95v28.94v223.81h750V36.89V3.83V-42.8
			C746.05-44.04,741.86-44.7,737.51-44.7z"/>
	</defs>
	<clipPath id="SVGID_3_">
		<use xlink:href="#SVGID_2_"  style="overflow:visible;"/>
	</clipPath>
	<rect x="-1.53" y="0.88" class="st2" width="751.53" height="259.82"/>
</g>
</svg>
